<?xml version="1.0" encoding="UTF-8" standalone="no"?>
<!DOCTYPE svg PUBLIC "-//W3C//DTD SVG 1.1//EN" "http://www.w3.org/Graphics/SVG/1.1/DTD/svg11.dtd">
<svg width="100%" height="100%" viewBox="0 0 800 801" version="1.1" xmlns="http://www.w3.org/2000/svg" xmlns:xlink="http://www.w3.org/1999/xlink" xml:space="preserve" xmlns:serif="http://www.serif.com/" style="fill-rule:evenodd;clip-rule:evenodd;stroke-linecap:round;stroke-linejoin:round;stroke-miterlimit:10;">
    <g transform="matrix(1,0,0,1,-800,-1629)">
        <g transform="matrix(1,0,0,2.00972,0,2.28479e-13)">
            <g id="calendar-add-svgrepo-com.svg" transform="matrix(1,0,0,0.497581,1200,1009.75)">
                <g transform="matrix(1,0,0,1,-400,-400)">
                    <g transform="matrix(0.779442,0,0,0.742429,208.233,90.6548)">
                        <g id="SVGRepo_iconCarrier">
                            <g>
                                <path d="M266.667,66.667L266.667,166.667" style="fill:none;fill-rule:nonzero;stroke:white;stroke-width:50px;"/>
                                <path d="M533.333,66.667L533.333,166.667" style="fill:none;fill-rule:nonzero;stroke:white;stroke-width:50px;"/>
                                <path d="M116.667,302.995L683.333,302.995" style="fill:none;fill-rule:nonzero;stroke:white;stroke-width:50px;"/>
                                <path d="M600,766.667C673.637,766.667 733.333,706.97 733.333,633.333C733.333,559.697 673.637,500 600,500C526.363,500 466.667,559.697 466.667,633.333C466.667,706.97 526.363,766.667 600,766.667Z" style="fill:none;fill-rule:nonzero;stroke:white;stroke-width:50px;"/>
                                <path d="M649.66,634.993L550.327,634.993" style="fill:none;fill-rule:nonzero;stroke:white;stroke-width:38.72px;"/>
                                <path d="M600,586.327L600,685.993" style="fill:none;fill-rule:nonzero;stroke:white;stroke-width:38.72px;"/>
                                <path d="M700,283.333L700,545.333C675.667,517.667 640,500 600,500C526.333,500 466.667,559.667 466.667,633.333C466.667,658.333 473.667,682 486,702C493,714 502,724.667 512.333,733.333L266.667,733.333C150,733.333 100,666.667 100,566.667L100,283.333C100,183.333 150,116.667 266.667,116.667L533.333,116.667C650,116.667 700,183.333 700,283.333Z" style="fill:none;fill-rule:nonzero;stroke:white;stroke-width:50px;"/>
                                <path d="M399.85,456.673L400.15,456.673" style="fill:none;fill-rule:nonzero;stroke:white;stroke-width:66.67px;stroke-miterlimit:4;"/>
                                <path d="M276.477,456.673L276.776,456.673" style="fill:none;fill-rule:nonzero;stroke:white;stroke-width:66.67px;stroke-miterlimit:4;"/>
                                <path d="M276.497,556.673L276.797,556.673" style="fill:none;fill-rule:nonzero;stroke:white;stroke-width:66.67px;stroke-miterlimit:4;"/>
                            </g>
                        </g>
                    </g>
                </g>
            </g>
        </g>
    </g>
</svg>
