<?xml version="1.0" encoding="UTF-8" standalone="no"?>
<!DOCTYPE svg PUBLIC "-//W3C//DTD SVG 1.1//EN" "http://www.w3.org/Graphics/SVG/1.1/DTD/svg11.dtd">
<svg width="100%" height="100%" viewBox="0 0 800 801" version="1.1" xmlns="http://www.w3.org/2000/svg" xmlns:xlink="http://www.w3.org/1999/xlink" xml:space="preserve" xmlns:serif="http://www.serif.com/" style="fill-rule:evenodd;clip-rule:evenodd;stroke-linecap:round;stroke-linejoin:round;stroke-miterlimit:10;">
    <g transform="matrix(1,0,0,1,0,-1629)">
        <g transform="matrix(1,0,0,2.00972,0,2.28479e-13)">
            <g id="calendar-search-svgrepo-com.svg" transform="matrix(1,0,0,0.497581,400,1009.75)">
                <g transform="matrix(1,0,0,1,-400,-400)">
                    <g id="SVGRepo_iconCarrier">
                        <g transform="matrix(0.739,0,0,0.739,92.0833,104.4)">
                            <path d="M266.667,66.667L266.667,166.667" style="fill:none;fill-rule:nonzero;stroke:white;stroke-width:50px;"/>
                        </g>
                        <g transform="matrix(0.739,0,0,0.739,92.0833,104.4)">
                            <path d="M533.333,66.667L533.333,166.667" style="fill:none;fill-rule:nonzero;stroke:white;stroke-width:50px;"/>
                        </g>
                        <g transform="matrix(0.739,0,0,0.739,92.0833,104.4)">
                            <path d="M606.667,713.333C665.577,713.333 713.333,665.577 713.333,606.667C713.333,547.757 665.577,500 606.667,500C547.757,500 500,547.757 500,606.667C500,665.577 547.757,713.333 606.667,713.333Z" style="fill:none;fill-rule:nonzero;stroke:white;stroke-width:50px;stroke-miterlimit:4;"/>
                        </g>
                        <g transform="matrix(0.739,0,0,0.739,92.0833,104.4)">
                            <path d="M733.333,733.333L700,700" style="fill:none;fill-rule:nonzero;stroke:white;stroke-width:50px;stroke-miterlimit:4;"/>
                        </g>
                        <g transform="matrix(0.739,0,0,0.739,92.0833,104.4)">
                            <path d="M116.667,302.995L683.333,302.995" style="fill:none;fill-rule:nonzero;stroke:white;stroke-width:50px;"/>
                        </g>
                        <g transform="matrix(0.739,0,0,0.739,92.0833,104.4)">
                            <path d="M445.667,733.333L266.667,733.333C150,733.333 100,666.667 100,566.667L100,283.333C100,183.333 150,116.667 266.667,116.667L533.333,116.667C650,116.667 700,183.333 700,283.333L700,433.333" style="fill:none;fill-rule:nonzero;stroke:white;stroke-width:50px;"/>
                        </g>
                        <g transform="matrix(0.739,0,0,0.739,92.0833,104.4)">
                            <path d="M399.85,456.673L400.15,456.673" style="fill:none;fill-rule:nonzero;stroke:white;stroke-width:66.67px;stroke-miterlimit:4;"/>
                        </g>
                        <g transform="matrix(0.739,0,0,0.739,92.0833,104.4)">
                            <path d="M276.477,456.673L276.776,456.673" style="fill:none;fill-rule:nonzero;stroke:white;stroke-width:66.67px;stroke-miterlimit:4;"/>
                        </g>
                        <g transform="matrix(0.739,0,0,0.739,92.0833,104.4)">
                            <path d="M276.497,556.673L276.797,556.673" style="fill:none;fill-rule:nonzero;stroke:white;stroke-width:66.67px;stroke-miterlimit:4;"/>
                        </g>
                    </g>
                </g>
            </g>
        </g>
    </g>
</svg>
