<?xml version="1.0" encoding="UTF-8" standalone="no"?>
<!DOCTYPE svg PUBLIC "-//W3C//DTD SVG 1.1//EN" "http://www.w3.org/Graphics/SVG/1.1/DTD/svg11.dtd">
<svg width="100%" height="100%" viewBox="0 0 800 800" version="1.1" xmlns="http://www.w3.org/2000/svg" xmlns:xlink="http://www.w3.org/1999/xlink" xml:space="preserve" xmlns:serif="http://www.serif.com/" style="fill-rule:evenodd;clip-rule:evenodd;stroke-linejoin:round;stroke-miterlimit:2;">
    <g transform="matrix(1,0,0,1,-1600,-800)">
        <g id="customer-source-line-svgrepo-com.svg" transform="matrix(1,0,0,1,2000,1200)">
            <g transform="matrix(1,0,0,1,-400,-400)">
                <g transform="matrix(0.83254,0,0,0.83254,67.6668,79.0166)">
                    <g id="SVGRepo_iconCarrier">
                        <path d="M584.844,478.75L625.938,439.063C591.953,403.828 551.328,377.578 506.719,361.484C545.313,330 570.078,282.109 570.078,228.516C570.078,133.984 493.203,57.109 398.672,57.109C304.141,57.109 227.266,133.984 227.266,228.516C227.266,282.5 252.344,330.703 291.406,362.188C171.328,406.406 85.469,521.953 85.469,657.266L142.578,657.266C142.578,515.469 257.969,400.156 399.688,400.156C470.156,400.078 535.938,428.047 584.844,478.75ZM398.672,114.297C461.719,114.297 512.969,165.547 512.969,228.594C512.969,291.641 461.719,342.891 398.672,342.891C335.625,342.891 284.375,291.563 284.375,228.594C284.375,165.625 335.625,114.297 398.672,114.297ZM541.172,530.625L666.875,656.328L712.891,484.609L541.172,530.625ZM644.688,573.516L623.984,552.813L652.344,545.234L644.688,573.516ZM481.406,713.984L653.125,667.969L527.422,542.266L481.406,713.984ZM549.609,625.078L570.313,645.781L541.953,653.359L549.609,625.078Z" style="fill:white;fill-rule:nonzero;"/>
                    </g>
                </g>
            </g>
        </g>
    </g>
</svg>
