<?xml version="1.0" encoding="UTF-8" standalone="no"?>
<!DOCTYPE svg PUBLIC "-//W3C//DTD SVG 1.1//EN" "http://www.w3.org/Graphics/SVG/1.1/DTD/svg11.dtd">
<svg width="100%" height="100%" viewBox="0 0 800 800" version="1.1" xmlns="http://www.w3.org/2000/svg" xmlns:xlink="http://www.w3.org/1999/xlink" xml:space="preserve" xmlns:serif="http://www.serif.com/" style="fill-rule:evenodd;clip-rule:evenodd;stroke-linecap:round;stroke-linejoin:round;">
    <g transform="matrix(1,0,0,1,-800,0)">
        <g id="delete.svg" transform="matrix(1,0,0,1,1200,400)">
            <g transform="matrix(1,0,0,1,-400,-400)">
                <g transform="matrix(0.711667,0,0,0.711667,115.333,115.333)">
                    <path d="M333.333,366.667L333.333,566.667" style="fill:none;fill-rule:nonzero;stroke:white;stroke-width:66.67px;"/>
                </g>
                <g transform="matrix(0.711667,0,0,0.711667,115.333,115.333)">
                    <path d="M466.667,366.667L466.667,566.667" style="fill:none;fill-rule:nonzero;stroke:white;stroke-width:66.67px;"/>
                </g>
                <g transform="matrix(0.711667,0,0,0.711667,115.333,115.333)">
                    <path d="M133.333,233.333L666.667,233.333" style="fill:none;fill-rule:nonzero;stroke:white;stroke-width:66.67px;"/>
                </g>
                <g transform="matrix(0.711667,0,0,0.711667,115.333,115.333)">
                    <path d="M200,233.333L600,233.333L600,600C600,655.23 555.23,700 500,700L300,700C244.772,700 200,655.23 200,600L200,233.333Z" style="fill:none;fill-rule:nonzero;stroke:white;stroke-width:66.67px;"/>
                </g>
                <g transform="matrix(0.711667,0,0,0.711667,115.333,115.333)">
                    <path d="M300,166.667C300,129.848 329.848,100 366.667,100L433.333,100C470.153,100 500,129.848 500,166.667L500,233.333L300,233.333L300,166.667Z" style="fill:none;fill-rule:nonzero;stroke:white;stroke-width:66.67px;"/>
                </g>
            </g>
        </g>
    </g>
</svg>
