<?xml version="1.0" encoding="UTF-8" standalone="no"?>
<!DOCTYPE svg PUBLIC "-//W3C//DTD SVG 1.1//EN" "http://www.w3.org/Graphics/SVG/1.1/DTD/svg11.dtd">
<svg width="100%" height="100%" viewBox="0 0 800 800" version="1.1" xmlns="http://www.w3.org/2000/svg" xmlns:xlink="http://www.w3.org/1999/xlink" xml:space="preserve" xmlns:serif="http://www.serif.com/" style="fill-rule:evenodd;clip-rule:evenodd;stroke-linecap:round;stroke-linejoin:round;">
    <g transform="matrix(1,0,0,1,-800,-800)">
        <g id="home-03-svgrepo-com.svg" transform="matrix(1,0,0,1,1200,1200)">
            <g transform="matrix(1,0,0,1,-400,-400)">
                <g transform="matrix(0.778,0,0,0.778,88.8,98.525)">
                    <g id="SVGRepo_iconCarrier">
                        <path d="M300,700L300,453.333C300,434.663 300,425.33 303.633,418.2C306.829,411.927 311.928,406.83 318.2,403.633C325.331,400 334.667,400 353.333,400L446.667,400C465.337,400 474.67,400 481.8,403.633C488.073,406.83 493.17,411.927 496.367,418.2C500,425.33 500,434.663 500,453.333L500,700M66.667,316.667L368,90.667C379.477,82.06 385.213,77.757 391.513,76.098C397.077,74.634 402.923,74.634 408.487,76.098C414.787,77.757 420.523,82.06 432,90.667L733.333,316.667M133.333,266.667L133.333,593.333C133.333,630.67 133.333,649.34 140.6,663.6C146.991,676.143 157.19,686.343 169.734,692.733C183.995,700 202.663,700 240,700L560,700C597.337,700 616.007,700 630.267,692.733C642.81,686.343 653.01,676.143 659.4,663.6C666.667,649.34 666.667,630.67 666.667,593.333L666.667,266.667L464,114.667C441.05,97.454 429.573,88.847 416.97,85.53C405.847,82.601 394.153,82.601 383.03,85.53C370.427,88.847 358.95,97.454 336,114.667L133.333,266.667Z" style="fill:none;fill-rule:nonzero;stroke:white;stroke-width:66.67px;"/>
                    </g>
                </g>
            </g>
        </g>
    </g>
</svg>
