<?xml version="1.0" encoding="UTF-8" standalone="no"?>
<!DOCTYPE svg PUBLIC "-//W3C//DTD SVG 1.1//EN" "http://www.w3.org/Graphics/SVG/1.1/DTD/svg11.dtd">
<svg width="100%" height="100%" viewBox="0 0 800 801" version="1.1" xmlns="http://www.w3.org/2000/svg" xmlns:xlink="http://www.w3.org/1999/xlink" xml:space="preserve" xmlns:serif="http://www.serif.com/" style="fill-rule:evenodd;clip-rule:evenodd;stroke-linejoin:round;stroke-miterlimit:2;">
    <g transform="matrix(1,0,0,1,-1600,-2261)">
        <g transform="matrix(1,0,0,2.00972,0,2.28479e-13)">
            <g id="logout-svgrepo-com--3-.svg" serif:id="logout-svgrepo-com (3).svg" transform="matrix(1,0,0,0.497581,2000,1324.43)">
                <g transform="matrix(1,0,0,1,-400,-400)">
                    <g id="SVGRepo_iconCarrier" transform="matrix(0.775537,0,0,0.778,88.6788,88.8)">
                        <g transform="matrix(1,0,0,1,-47.5615,0)">
                            <path d="M433.33,66.667C341.283,66.667 266.664,141.286 266.664,233.333C266.664,251.743 281.587,266.667 299.997,266.667C318.406,266.667 333.33,251.743 333.33,233.333C333.33,178.105 378.103,133.333 433.33,133.333L566.663,133.333C621.893,133.333 666.663,178.105 666.663,233.333L666.663,566.667C666.663,621.897 621.893,666.667 566.663,666.667L433.33,666.667C378.103,666.667 333.33,621.897 333.33,566.667C333.33,548.257 318.406,533.333 299.997,533.333C281.587,533.333 266.664,548.257 266.664,566.667C266.664,658.713 341.283,733.333 433.33,733.333L566.663,733.333C658.71,733.333 733.33,658.713 733.33,566.667L733.33,233.333C733.33,141.286 658.71,66.667 566.663,66.667L433.33,66.667Z" style="fill:white;fill-rule:nonzero;"/>
                        </g>
                        <g transform="matrix(1,0,0,1,-55.3939,0)">
                            <path d="M466.663,366.667C485.073,366.667 499.997,381.59 499.997,400C499.997,418.41 485.073,433.333 466.663,433.333L466.663,366.667Z" style="fill:white;fill-rule:nonzero;"/>
                        </g>
                        <g transform="matrix(1,0,0,1,-55.3939,0)">
                            <path d="M190.594,366.667C193.562,363.007 196.405,359.457 199.094,356.067C207.277,345.743 214.205,336.68 219.097,330.183C221.545,326.932 223.489,324.315 224.832,322.497L226.384,320.387L226.8,319.818L226.947,319.616C226.949,319.614 226.964,319.593 199.997,300L226.947,319.616C237.768,304.722 234.483,283.854 219.59,273.033C204.697,262.212 183.853,265.513 173.031,280.405L172.937,280.534L172.596,281.001L171.204,282.893C169.973,284.561 168.152,287.011 165.839,290.083C161.208,296.234 154.625,304.847 146.856,314.646C131.148,334.457 111.253,358.27 93.093,376.43L69.523,400L93.093,423.57C111.253,441.73 131.148,465.543 146.856,485.353C154.625,495.153 161.208,503.767 165.839,509.917C168.152,512.99 169.973,515.44 171.204,517.107L172.596,519L172.937,519.467L173.015,519.573C183.836,534.463 204.697,537.787 219.59,526.967C234.483,516.147 237.785,495.3 226.964,480.407L199.997,500C226.964,480.407 226.966,480.41 226.964,480.407L226.8,480.183L226.384,479.613L224.832,477.503C223.489,475.683 221.545,473.07 219.097,469.817C214.205,463.32 207.277,454.257 199.094,443.933C196.405,440.543 193.562,436.993 190.594,433.333L466.663,433.333L466.663,366.667L190.594,366.667Z" style="fill:white;fill-rule:nonzero;"/>
                        </g>
                    </g>
                </g>
            </g>
        </g>
    </g>
</svg>
