<?xml version="1.0" encoding="UTF-8" standalone="no"?>
<!DOCTYPE svg PUBLIC "-//W3C//DTD SVG 1.1//EN" "http://www.w3.org/Graphics/SVG/1.1/DTD/svg11.dtd">
<svg width="100%" height="100%" viewBox="0 0 801 801" version="1.1" xmlns="http://www.w3.org/2000/svg" xmlns:xlink="http://www.w3.org/1999/xlink" xml:space="preserve" xmlns:serif="http://www.serif.com/" style="fill-rule:evenodd;clip-rule:evenodd;stroke-linejoin:round;stroke-miterlimit:2;">
    <g transform="matrix(1,0,0,1,-29,-2378)">
        <g transform="matrix(1,0,0,2.00972,0,2.28479e-13)">
            <g id="search.svg" transform="matrix(0.445186,0,0,0.221393,429.578,1382.75)">
                <g transform="matrix(1,0,0,1,-898.5,-899)">
                    <g transform="matrix(-0.567174,0,0,0.567174,2749.27,-376.682)">
                        <g>
                            <path d="M2846.96,2382.76C2780.45,2274.84 2742.08,2147.78 2742.08,2011.83C2742.08,1620.83 3059.52,1303.39 3450.52,1303.39C3841.52,1303.39 4158.96,1620.83 4158.96,2011.83C4158.96,2402.83 3841.52,2720.28 3450.52,2720.28C3315.2,2720.28 3188.68,2682.25 3081.1,2616.32L2649.55,3047.86C2585.02,3112.39 2480.24,3112.39 2415.71,3047.86C2351.18,2983.33 2351.18,2878.55 2415.71,2814.01L2846.96,2382.76ZM3450.52,1558.91C3700.49,1558.91 3903.44,1761.86 3903.44,2011.83C3903.44,2261.8 3700.49,2464.75 3450.52,2464.75C3200.55,2464.75 2997.6,2261.8 2997.6,2011.83C2997.6,1761.86 3200.55,1558.91 3450.52,1558.91Z" style="fill:white;"/>
                        </g>
                    </g>
                </g>
            </g>
        </g>
    </g>
</svg>
