<?xml version="1.0" encoding="UTF-8" standalone="no"?>
<!DOCTYPE svg PUBLIC "-//W3C//DTD SVG 1.1//EN" "http://www.w3.org/Graphics/SVG/1.1/DTD/svg11.dtd">
<svg width="100%" height="100%" viewBox="0 0 800 800" version="1.1" xmlns="http://www.w3.org/2000/svg" xmlns:xlink="http://www.w3.org/1999/xlink" xml:space="preserve" xmlns:serif="http://www.serif.com/" style="fill-rule:evenodd;clip-rule:evenodd;stroke-linejoin:round;stroke-miterlimit:2;">
    <g transform="matrix(1.21922,0,0,1.21922,-3915.13,-61789.7)">
        <g id="SVGRepo_iconCarrier">
            <g id="Page-1">
                <g id="Dribbble-Light-Preview">
                    <g id="icons">
                        <path id="profile---f6fafe-" serif:id="profile-[#f6fafe]" d="M3539.24,51007.6C3483.13,51007.6 3437.49,50962.2 3437.49,50906.3C3437.49,50850.5 3483.13,50805.1 3539.24,50805.1C3595.36,50805.1 3640.99,50850.5 3640.99,50906.3C3640.99,50962.2 3595.36,51007.6 3539.24,51007.6M3634.83,51024.6C3675.2,50992.3 3698.73,50940 3690.08,50882.8C3680.03,50816.4 3624.53,50763.2 3557.53,50755.5C3465.07,50744.8 3386.62,50816.4 3386.62,50906.3C3386.62,50954.2 3408.9,50996.8 3443.65,51024.6C3358.28,51056.6 3295.96,51131.5 3286.19,51232.7C3284.77,51247.6 3296.49,51260.8 3311.61,51260.8C3324.55,51260.8 3335.59,51251 3336.74,51238.2C3346.94,51125.2 3433.86,51058.2 3539.24,51058.2C3644.63,51058.2 3731.54,51125.2 3741.74,51238.2C3742.89,51251 3753.93,51260.8 3766.88,51260.8C3781.99,51260.8 3793.71,51247.6 3792.29,51232.7C3782.52,51131.5 3720.2,51056.6 3634.83,51024.6" style="fill:rgb(246,250,254);stroke:rgb(246,250,254);stroke-width:7.38px;"/>
                    </g>
                </g>
            </g>
        </g>
    </g>
</svg>
