<?xml version="1.0" encoding="UTF-8" standalone="no"?>
<!DOCTYPE svg PUBLIC "-//W3C//DTD SVG 1.1//EN" "http://www.w3.org/Graphics/SVG/1.1/DTD/svg11.dtd">
<svg width="100%" height="100%" viewBox="0 0 800 800" version="1.1" xmlns="http://www.w3.org/2000/svg" xmlns:xlink="http://www.w3.org/1999/xlink" xml:space="preserve" xmlns:serif="http://www.serif.com/" style="fill-rule:evenodd;clip-rule:evenodd;">
    <g id="SVGRepo_iconCarrier" transform="matrix(1,0,0,1,0.00222303,19.155)">
        <path d="M284.615,534.615C284.615,524.066 293.296,515.385 303.846,515.385L650,515.385C660.55,515.385 669.231,524.066 669.231,534.615C669.231,545.165 660.55,553.846 650,553.846L303.846,553.846C293.296,553.846 284.615,545.165 284.615,534.615ZM284.615,380.769C284.615,370.22 293.296,361.538 303.846,361.538L650,361.538C660.55,361.538 669.231,370.22 669.231,380.769C669.231,391.319 660.55,400 650,400L303.846,400C293.296,400 284.615,391.319 284.615,380.769ZM284.615,226.923C284.615,216.373 293.296,207.692 303.846,207.692L650,207.692C660.55,207.692 669.231,216.373 669.231,226.923C669.231,237.473 660.55,246.154 650,246.154L303.846,246.154C293.296,246.154 284.615,237.473 284.615,226.923Z" style="fill:rgb(246,250,254);stroke:rgb(246,250,254);stroke-width:4.92px;"/>
        <path d="M178.538,176.692C179.878,172.351 183.918,169.369 188.462,169.369C193.005,169.369 197.045,172.351 198.385,176.692L204.615,197.077C205.962,201.5 210,204.538 214.538,204.538L235.731,204.538C245.692,204.538 249.962,217.346 242.038,223.5L224.038,237.462C220.564,240.179 219.12,244.786 220.423,249L227.077,270.885C230.077,280.731 218.885,288.654 210.808,282.423L194.769,269.962C191.072,267.084 185.851,267.084 182.154,269.962L166.115,282.385C158.038,288.654 146.885,280.731 149.846,270.885L156.5,248.962C157.785,244.759 156.343,240.173 152.885,237.462L134.885,223.5C126.962,217.346 131.231,204.538 141.192,204.538L162.346,204.538C166.937,204.524 171.003,201.479 172.308,197.077L178.538,176.692ZM178.538,330.538C179.878,326.197 183.918,323.215 188.462,323.215C193.005,323.215 197.045,326.197 198.385,330.538L204.615,350.923C205.962,355.346 210,358.385 214.538,358.385L235.731,358.385C245.692,358.385 249.962,371.192 242.038,377.346L224.038,391.308C220.564,394.025 219.12,398.632 220.423,402.846L227.077,424.731C230.077,434.538 218.885,442.5 210.808,436.269L194.769,423.808C191.072,420.93 185.851,420.93 182.154,423.808L166.115,436.231C158.038,442.5 146.885,434.577 149.846,424.731L156.5,402.808C157.785,398.605 156.343,394.019 152.885,391.308L134.885,377.346C126.962,371.192 131.231,358.385 141.192,358.385L162.346,358.385C166.937,358.371 171.003,355.325 172.308,350.923L178.538,330.538ZM178.538,484.385C179.878,480.043 183.918,477.061 188.462,477.061C193.005,477.061 197.045,480.043 198.385,484.385L204.615,504.769C205.962,509.192 210,512.231 214.538,512.231L235.731,512.231C245.692,512.231 249.962,525.038 242.038,531.192L224.038,545.154C220.564,547.871 219.12,552.478 220.423,556.692L227.077,578.577C230.077,588.385 218.885,596.346 210.808,590.115L194.769,577.654C191.072,574.776 185.851,574.776 182.154,577.654L166.115,590.077C158.038,596.346 146.885,588.423 149.846,578.577L156.5,556.654C157.785,552.451 156.343,547.865 152.885,545.154L134.885,531.192C126.962,525.038 131.231,512.231 141.192,512.231L162.346,512.231C166.937,512.217 171.003,509.171 172.308,504.769L178.538,484.385Z" style="fill:rgb(246,250,254);fill-rule:nonzero;stroke:rgb(246,250,254);stroke-width:4.92px;"/>
    </g>
</svg>
