<?xml version="1.0" encoding="UTF-8" standalone="no"?>
<!DOCTYPE svg PUBLIC "-//W3C//DTD SVG 1.1//EN" "http://www.w3.org/Graphics/SVG/1.1/DTD/svg11.dtd">
<svg width="100%" height="100%" viewBox="0 0 90 82" version="1.1" xmlns="http://www.w3.org/2000/svg" xmlns:xlink="http://www.w3.org/1999/xlink" xml:space="preserve" xmlns:serif="http://www.serif.com/" style="fill-rule:evenodd;clip-rule:evenodd;stroke-linejoin:round;stroke-miterlimit:2;">
    <g transform="matrix(1,0,0,1,-218.636,-59.849)">
        <g transform="matrix(1,0,0,1,-42.6727,-233)">
            <path d="M293.349,362.116C295.875,358.772 297.274,355.95 297.861,352.847L302.578,352.847C302.017,356.237 300.859,359.474 298.817,362.565C300.591,365.41 303.135,367.564 305.981,369.149C308.828,367.564 311.372,365.41 313.146,362.565C311.104,359.474 309.946,356.237 309.385,352.847L314.102,352.847C314.689,355.95 316.087,358.772 318.614,362.116C316.61,367.27 311.414,372.131 305.981,374.268C300.549,372.131 295.353,367.27 293.349,362.116ZM331.798,344.597L280.165,344.597L280.165,348.943L331.798,348.943L331.798,344.597ZM350.27,335.448C351.971,328.81 347.937,320.593 339.883,318.818C327.742,316.148 319.492,329.639 318.373,340.678L322.987,340.678C323.873,333.287 329.935,321.319 338.944,323.302C344.533,324.533 346.755,330.338 345.74,334.415L350.27,335.448ZM313.951,340.678C314.846,331.831 321.874,324.434 321.824,315.01C321.791,308.833 318.481,304.307 315.149,300.995C312.115,297.979 309.371,296.855 305.981,292.849C302.592,296.855 299.848,297.979 296.814,300.995C293.482,304.307 290.172,308.833 290.139,315.01C290.089,324.434 297.117,331.831 298.012,340.678L302.673,340.678L302.664,340.562C301.833,330.747 294.876,323.315 294.786,315.138C295.677,305.725 301.193,304.417 305.981,299.392C310.77,304.417 316.285,305.725 317.177,315.138C317.087,323.315 310.13,330.747 309.299,340.562L309.29,340.678L313.951,340.678ZM261.693,335.448C259.992,328.81 264.026,320.593 272.08,318.818C284.22,316.148 292.471,329.639 293.589,340.678L288.976,340.678C288.09,333.287 282.028,321.319 273.019,323.302C267.43,324.533 265.208,330.338 266.223,334.415L261.693,335.448Z" style="fill:white;fill-rule:nonzero;"/>
        </g>
    </g>
</svg>
