<?xml version="1.0" standalone="no"?>
<!DOCTYPE svg PUBLIC "-//W3C//DTD SVG 20010904//EN"
 "http://www.w3.org/TR/2001/REC-SVG-20010904/DTD/svg10.dtd">
<svg version="1.0" xmlns="http://www.w3.org/2000/svg"
 width="700.000000pt" height="700.000000pt" viewBox="0 0 700.000000 700.000000"
 preserveAspectRatio="xMidYMid meet">
<metadata>
Created by potrace 1.14, written by Peter Selinger 2001-2017
</metadata>
<g transform="translate(0.000000,700.000000) scale(0.100000,-0.100000)"
fill="#000000" stroke="none">
<path d="M4820 6975 c-412 -62 -782 -243 -1065 -522 -44 -43 -97 -99 -117
-123 -21 -25 -49 -58 -63 -75 -29 -34 -135 -191 -135 -199 0 -3 -13 -28 -30
-54 -107 -174 -205 -491 -226 -732 -17 -188 -1 -474 32 -582 4 -13 -378 -401
-1485 -1508 -1617 -1618 -1563 -1560 -1644 -1753 -20 -47 -46 -132 -58 -188
-30 -143 -24 -352 15 -483 107 -361 370 -618 734 -718 64 -18 106 -22 247 -22
192 -1 283 16 424 80 178 82 139 44 1728 1634 1396 1395 1493 1490 1520 1485
15 -3 43 -8 62 -11 18 -3 42 -7 53 -9 87 -17 346 -23 453 -11 332 38 607 135
863 304 396 259 688 665 802 1112 18 73 22 88 34 160 3 19 9 49 12 65 11 53
13 408 3 485 -29 228 -110 489 -207 665 -45 82 -114 113 -188 85 -15 -6 -308
-292 -652 -636 l-626 -625 -253 253 c-139 139 -253 254 -253 256 0 1 276 278
613 615 337 336 622 626 635 644 28 40 27 102 -3 147 -52 79 -422 219 -690
261 -82 13 -449 13 -535 0z m470 -276 c122 -14 272 -50 373 -91 l29 -11 -600
-601 c-330 -331 -606 -612 -613 -626 -19 -38 -21 -87 -5 -119 9 -16 182 -195
386 -400 318 -317 377 -372 412 -382 81 -21 73 -28 723 621 393 394 602 596
606 588 12 -22 57 -170 73 -239 26 -114 31 -169 31 -344 0 -195 -6 -251 -39
-390 -75 -307 -217 -560 -440 -780 -307 -304 -724 -474 -1151 -469 -136 1
-213 10 -334 36 -562 120 -1025 535 -1205 1078 -31 94 -44 152 -74 325 -9 55
-8 315 2 385 63 442 266 808 591 1067 44 34 85 67 90 71 27 22 169 103 235
134 202 97 429 153 635 157 49 1 90 3 92 4 3 4 77 -2 183 -14z m-1909 -2475
l66 -134 -1361 -1362 c-749 -750 -1376 -1385 -1394 -1413 -130 -199 -64 -492
138 -620 159 -100 393 -89 524 25 16 14 432 427 924 918 532 532 899 906 907
925 37 90 -30 190 -125 189 -22 0 -49 -6 -62 -12 -13 -7 -430 -418 -928 -915
-956 -953 -933 -933 -1013 -922 -140 19 -203 178 -113 283 18 22 626 632 1351
1356 l1318 1318 101 -103 c166 -167 308 -273 511 -376 62 -33 120 -61 127 -64
15 -6 -2773 -2802 -2864 -2873 -322 -251 -797 -194 -1043 126 -199 260 -213
611 -33 879 28 42 2886 2912 2898 2910 3 0 35 -61 71 -135z"/>
<path d="M3511 3254 c-42 -18 -136 -107 -156 -150 -47 -98 23 -208 132 -206
50 0 71 12 135 74 68 66 88 100 88 150 0 105 -101 173 -199 132z"/>
</g>
</svg>
