<?xml version="1.0" encoding="UTF-8" standalone="no"?><!DOCTYPE svg PUBLIC "-//W3C//DTD SVG 1.1//EN" "http://www.w3.org/Graphics/SVG/1.1/DTD/svg11.dtd"><svg width="100%" height="100%" viewBox="0 0 2088 2088" version="1.1" xmlns="http://www.w3.org/2000/svg" xmlns:xlink="http://www.w3.org/1999/xlink" xml:space="preserve" xmlns:serif="http://www.serif.com/" style="fill-rule:evenodd;clip-rule:evenodd;stroke-linejoin:round;stroke-miterlimit:2;"><rect id="Artboard3" x="2.043" y="3.269" width="2083.33" height="2083.33" style="fill:none;"/><g><path d="M1043.71,1534.16c-45.686,0 -82.947,38.11 -82.947,84.835l-0,169.669c-0,46.726 37.261,84.835 82.947,84.835c45.686,0 82.948,-38.109 82.948,-84.835l0,-169.669c0,-46.725 -37.262,-84.835 -82.948,-84.835Z" style="fill:#fb0;"/><path d="M1395.59,1385.03c-32.401,33.139 -32.401,86.823 0,119.962l117.294,119.961c31.753,33.801 84.243,34.796 117.293,1.988c33.049,-32.475 34.022,-86.16 1.944,-119.961l-119.237,-121.95c-32.402,-33.139 -84.892,-33.139 -117.294,-0Z" style="fill:#fb0;"/><path d="M576.48,1383.05l-119.237,121.95c-31.754,33.801 -30.782,87.485 1.944,119.961c32.077,31.813 83.272,31.813 115.349,0l117.293,-119.961c33.05,-32.476 34.022,-86.161 1.944,-119.962c-31.753,-33.801 -84.243,-34.796 -117.293,-1.988Z" style="fill:#fb0;"/><path d="M1043.71,1449.32c-229.078,-0 -414.738,-189.884 -414.738,-424.174c-0,-234.289 185.66,-424.173 414.738,-424.173c229.079,-0 414.739,189.884 414.739,424.173c0,234.29 -185.66,424.174 -414.739,424.174Z" style="fill:url(#_Linear1);"/><path d="M1820.55,940.315l-165.895,-0c-45.687,-0 -82.948,38.109 -82.948,84.834c-0,46.726 37.261,84.835 82.948,84.835l165.895,0c45.686,0 82.948,-38.109 82.948,-84.835c-0,-46.725 -37.262,-84.834 -82.948,-84.834Z" style="fill:#fb0;"/><path d="M432.767,940.315l-165.895,-0c-45.686,-0 -82.948,38.109 -82.948,84.834c-0,46.726 37.262,84.835 82.948,84.835l165.895,0c45.686,0 82.948,-38.109 82.948,-84.835c-0,-46.725 -37.262,-84.834 -82.948,-84.834Z" style="fill:#fb0;"/><path d="M457.243,425.342c-32.402,33.138 -32.402,86.823 -0,119.961l117.293,119.962c31.754,33.801 84.244,34.464 117.293,1.988c33.05,-32.476 34.022,-86.16 1.944,-119.961l-119.237,-121.95c-32.401,-33.139 -84.892,-33.139 -117.293,-0Z" style="fill:#fb0;"/><path d="M1512.88,425.342l-117.294,119.961c-31.753,33.802 -31.105,87.486 1.944,119.962c32.078,31.813 83.272,31.813 115.35,-0l117.293,-119.962c31.753,-33.801 30.781,-87.486 -1.944,-119.961c-32.402,-31.813 -83.272,-31.813 -115.349,-0Z" style="fill:#fb0;"/><path d="M1043.71,176.803c-45.686,-0 -82.947,38.109 -82.947,84.834l-0,169.67c-0,46.725 37.261,84.834 82.947,84.834c45.686,0 82.948,-38.109 82.948,-84.834l0,-169.67c0,-46.725 -37.262,-84.834 -82.948,-84.834Z" style="fill:#fb0;"/></g><defs><linearGradient id="_Linear1" x1="0" y1="0" x2="1" y2="0" gradientUnits="userSpaceOnUse" gradientTransform="matrix(1077.36,0,0,1101.87,628.971,1025.15)"><stop offset="0" style="stop-color:#ffc400;stop-opacity:1"/><stop offset="1" style="stop-color:#ff7100;stop-opacity:1"/></linearGradient></defs></svg>