<?xml version="1.0" encoding="UTF-8" standalone="no"?><!DOCTYPE svg PUBLIC "-//W3C//DTD SVG 1.1//EN" "http://www.w3.org/Graphics/SVG/1.1/DTD/svg11.dtd"><svg width="100%" height="100%" viewBox="0 0 2088 2088" version="1.1" xmlns="http://www.w3.org/2000/svg" xmlns:xlink="http://www.w3.org/1999/xlink" xml:space="preserve" xmlns:serif="http://www.serif.com/" style="fill-rule:evenodd;clip-rule:evenodd;stroke-linejoin:round;stroke-miterlimit:2;"><rect id="Artboard3" x="2.043" y="3.269" width="2083.33" height="2083.33" style="fill:none;"/><path d="M1258.76,326.555c241.476,96.091 412.36,332.064 412.36,607.635c-0,360.789 -292.915,653.704 -653.704,653.704c-264.531,0 -492.574,-157.466 -595.439,-383.727c109.025,104.821 257.115,169.294 420.146,169.294c334.696,-0 606.426,-271.731 606.426,-606.427c0,-173.406 -72.94,-329.91 -189.789,-440.479Z" style="fill:#fff;"/><path d="M1876.51,284.124c0.915,-4.293 4.707,-7.363 9.097,-7.363c4.39,-0 8.183,3.07 9.097,7.363l19.863,93.27c0.257,1.205 0.857,2.309 1.728,3.18c0.87,0.871 1.975,1.471 3.18,1.728l93.269,19.863c4.294,0.914 7.364,4.707 7.364,9.097c0,4.39 -3.07,8.182 -7.364,9.097l-93.269,19.863c-1.205,0.256 -2.31,0.856 -3.18,1.727c-0.871,0.871 -1.471,1.975 -1.728,3.18l-19.863,93.27c-0.914,4.294 -4.707,7.364 -9.097,7.364c-4.39,-0 -8.182,-3.07 -9.097,-7.364l-19.863,-93.27c-0.256,-1.205 -0.856,-2.309 -1.727,-3.18c-0.871,-0.871 -1.976,-1.471 -3.18,-1.727l-93.27,-19.863c-4.294,-0.915 -7.364,-4.707 -7.364,-9.097c0,-4.39 3.07,-8.183 7.364,-9.097l93.27,-19.863c1.204,-0.257 2.309,-0.857 3.18,-1.728c0.871,-0.871 1.471,-1.975 1.727,-3.18l19.863,-93.27Z" style="fill:#fff;"/><path d="M1067.75,448.927c1.186,-5.569 6.105,-9.551 11.799,-9.551c5.695,-0 10.614,3.982 11.8,9.551l25.764,120.978c0.332,1.562 1.111,2.995 2.24,4.124c1.13,1.13 2.562,1.908 4.125,2.241l120.978,25.764c5.569,1.186 9.551,6.105 9.551,11.799c-0,5.694 -3.982,10.613 -9.551,11.8l-120.978,25.763c-1.563,0.333 -2.995,1.111 -4.125,2.241c-1.129,1.129 -1.908,2.562 -2.24,4.124l-25.764,120.978c-1.186,5.57 -6.105,9.551 -11.8,9.551c-5.694,0 -10.613,-3.981 -11.799,-9.551l-25.764,-120.978c-0.332,-1.562 -1.111,-2.995 -2.24,-4.124c-1.13,-1.13 -2.562,-1.908 -4.125,-2.241l-120.978,-25.763c-5.569,-1.187 -9.551,-6.106 -9.551,-11.8c0,-5.694 3.982,-10.613 9.551,-11.799l120.978,-25.764c1.563,-0.333 2.995,-1.111 4.125,-2.241c1.129,-1.129 1.908,-2.562 2.24,-4.124l25.764,-120.978Z" style="fill:#fff;"/><path d="M928.514,965.13c0.962,-4.516 4.951,-7.745 9.568,-7.745c4.618,-0 8.606,3.229 9.568,7.745l20.891,98.098c0.27,1.267 0.901,2.428 1.817,3.344c0.916,0.916 2.078,1.547 3.345,1.817l98.098,20.891c4.516,0.962 7.744,4.951 7.744,9.568c0,4.618 -3.228,8.606 -7.744,9.568l-98.098,20.891c-1.267,0.27 -2.429,0.901 -3.345,1.817c-0.916,0.916 -1.547,2.078 -1.817,3.345l-20.891,98.098c-0.962,4.516 -4.95,7.745 -9.568,7.745c-4.617,-0 -8.606,-3.229 -9.568,-7.745l-20.891,-98.098c-0.27,-1.267 -0.901,-2.429 -1.817,-3.345c-0.916,-0.916 -2.077,-1.547 -3.344,-1.817l-98.098,-20.891c-4.516,-0.962 -7.745,-4.95 -7.745,-9.568c-0,-4.617 3.229,-8.606 7.745,-9.568l98.098,-20.891c1.267,-0.27 2.428,-0.901 3.344,-1.817c0.916,-0.916 1.547,-2.077 1.817,-3.344l20.891,-98.098Z" style="fill:#fff;"/><path d="M692.676,703.69c0.886,-4.161 4.561,-7.135 8.816,-7.135c4.254,-0 7.929,2.974 8.815,7.135l19.248,90.381c0.248,1.167 0.83,2.238 1.673,3.082c0.844,0.844 1.915,1.425 3.082,1.674l90.381,19.247c4.161,0.886 7.136,4.561 7.136,8.816c-0,4.254 -2.975,7.929 -7.136,8.815l-90.381,19.248c-1.167,0.248 -2.238,0.83 -3.082,1.674c-0.843,0.843 -1.425,1.914 -1.673,3.081l-19.248,90.381c-0.886,4.161 -4.561,7.136 -8.815,7.136c-4.255,-0 -7.93,-2.975 -8.816,-7.136l-19.248,-90.381c-0.248,-1.167 -0.829,-2.238 -1.673,-3.081c-0.844,-0.844 -1.915,-1.426 -3.082,-1.674l-90.381,-19.248c-4.161,-0.886 -7.136,-4.561 -7.136,-8.815c0,-4.255 2.975,-7.93 7.136,-8.816l90.381,-19.247c1.167,-0.249 2.238,-0.83 3.082,-1.674c0.844,-0.844 1.425,-1.915 1.673,-3.082l19.248,-90.381Z" style="fill:#fff;"/><path d="M188.831,1105.98c0.887,-4.161 4.561,-7.136 8.816,-7.136c4.254,0 7.929,2.975 8.815,7.136l19.248,90.381c0.248,1.167 0.83,2.238 1.674,3.081c0.844,0.844 1.914,1.426 3.081,1.674l90.381,19.248c4.161,0.886 7.136,4.561 7.136,8.815c-0,4.255 -2.975,7.929 -7.136,8.816l-90.381,19.247c-1.167,0.249 -2.237,0.83 -3.081,1.674c-0.844,0.844 -1.426,1.914 -1.674,3.082l-19.248,90.381c-0.886,4.161 -4.561,7.135 -8.815,7.135c-4.255,0 -7.929,-2.974 -8.816,-7.135l-19.247,-90.381c-0.249,-1.168 -0.83,-2.238 -1.674,-3.082c-0.844,-0.844 -1.914,-1.425 -3.082,-1.674l-90.381,-19.247c-4.161,-0.887 -7.135,-4.561 -7.135,-8.816c-0,-4.254 2.974,-7.929 7.135,-8.815l90.381,-19.248c1.168,-0.248 2.238,-0.83 3.082,-1.674c0.844,-0.843 1.425,-1.914 1.674,-3.081l19.247,-90.381Z" style="fill:#fff;"/><path d="M1574.87,1551.47c0.915,-4.294 4.707,-7.364 9.097,-7.364c4.39,0 8.183,3.07 9.097,7.364l19.863,93.27c0.257,1.204 0.857,2.309 1.728,3.18c0.87,0.87 1.975,1.47 3.179,1.727l93.27,19.863c4.294,0.914 7.364,4.707 7.364,9.097c0,4.39 -3.07,8.183 -7.364,9.097l-93.27,19.863c-1.204,0.257 -2.309,0.857 -3.179,1.727c-0.871,0.871 -1.471,1.976 -1.728,3.18l-19.863,93.27c-0.914,4.294 -4.707,7.364 -9.097,7.364c-4.39,-0 -8.182,-3.07 -9.097,-7.364l-19.863,-93.27c-0.256,-1.204 -0.856,-2.309 -1.727,-3.18c-0.871,-0.87 -1.976,-1.47 -3.18,-1.727l-93.27,-19.863c-4.294,-0.914 -7.364,-4.707 -7.364,-9.097c0,-4.39 3.07,-8.183 7.364,-9.097l93.27,-19.863c1.204,-0.257 2.309,-0.857 3.18,-1.727c0.871,-0.871 1.471,-1.976 1.727,-3.18l19.863,-93.27Z" style="fill:#fff;"/></svg>