<?xml version="1.0" encoding="UTF-8" standalone="no"?><!DOCTYPE svg PUBLIC "-//W3C//DTD SVG 1.1//EN" "http://www.w3.org/Graphics/SVG/1.1/DTD/svg11.dtd"><svg width="100%" height="100%" viewBox="0 0 2088 2088" version="1.1" xmlns="http://www.w3.org/2000/svg" xmlns:xlink="http://www.w3.org/1999/xlink" xml:space="preserve" xmlns:serif="http://www.serif.com/" style="fill-rule:evenodd;clip-rule:evenodd;stroke-linejoin:round;stroke-miterlimit:2;"><rect id="Artboard3" x="3.484" y="0.298" width="2083.33" height="2083.33" style="fill:none;"/><clipPath id="_clip1"><rect x="3.484" y="0.298" width="2083.33" height="2083.33"/></clipPath><g clip-path="url(#_clip1)"><g><path d="M1266.16,567.738c84.421,-103.722 213.114,-170.037 357.173,-170.037c254.073,0 460.347,206.275 460.347,460.348c0,135.217 -58.424,256.897 -151.385,341.148c-25.48,-107.319 -98.262,-197.943 -197.058,-246.103c0.878,-10.225 1.32,-20.475 1.32,-30.734c0,-202.957 -165.112,-368.069 -368.069,-368.069c-34.243,-0 -68.452,4.881 -101.385,14.339l-0.943,-0.892Z" style="fill:url(#_Linear2);"/><path d="M1574.13,1589.22l-1146.05,0c-234.118,0 -424.599,-190.481 -424.599,-424.599c-0,-234.118 190.45,-424.631 424.599,-424.631c38.158,0 76.317,5.293 113.67,15.815c66.321,-155.511 219.542,-258.04 390.279,-258.04c122.552,-0 237.027,51.991 317.83,143.503c37.478,-15.814 78.019,-24.108 118.622,-24.108c168.293,-0 305.204,136.912 305.204,305.204c0,23.613 -2.847,47.164 -8.387,70.405c125.833,39.304 214.033,156.811 214.033,291.247c0,168.262 -136.911,305.204 -305.204,305.204Z" style="fill:#eee;fill-rule:nonzero;"/></g></g><defs><linearGradient id="_Linear2" x1="0" y1="0" x2="1" y2="0" gradientUnits="userSpaceOnUse" gradientTransform="matrix(817.52,0,0,801.496,1266.16,798.449)"><stop offset="0" style="stop-color:#ffc400;stop-opacity:1"/><stop offset="1" style="stop-color:#ff7100;stop-opacity:1"/></linearGradient></defs></svg>