<?xml version="1.0" encoding="UTF-8" standalone="no"?><!DOCTYPE svg PUBLIC "-//W3C//DTD SVG 1.1//EN" "http://www.w3.org/Graphics/SVG/1.1/DTD/svg11.dtd"><svg width="100%" height="100%" viewBox="0 0 2088 2088" version="1.1" xmlns="http://www.w3.org/2000/svg" xmlns:xlink="http://www.w3.org/1999/xlink" xml:space="preserve" xmlns:serif="http://www.serif.com/" style="fill-rule:evenodd;clip-rule:evenodd;stroke-linejoin:round;stroke-miterlimit:2;"><rect id="Artboard3" x="2.457" y="0.298" width="2083.33" height="2083.33" style="fill:none;"/><g><path d="M1265.13,567.738c84.421,-103.722 213.114,-170.037 357.173,-170.037c254.072,0 460.347,206.275 460.347,460.348c0,135.217 -58.424,256.897 -151.385,341.148c-25.48,-107.319 -98.262,-197.943 -197.058,-246.103c0.878,-10.225 1.32,-20.475 1.32,-30.734c0,-202.957 -165.112,-368.069 -368.069,-368.069c-34.243,-0 -68.452,4.881 -101.385,14.339l-0.943,-0.892Z" style="fill:url(#_Linear1);"/><path d="M1573.1,1589.22l-1146.05,0c-234.118,0 -424.6,-190.481 -424.6,-424.599c0,-234.118 190.451,-424.631 424.6,-424.631c38.158,0 76.316,5.293 113.67,15.815c66.32,-155.511 219.541,-258.04 390.279,-258.04c122.552,-0 237.026,51.991 317.83,143.503c37.478,-15.814 78.019,-24.108 118.622,-24.108c168.292,-0 305.204,136.912 305.204,305.204c-0,23.613 -2.847,47.164 -8.387,70.405c125.833,39.304 214.033,156.811 214.033,291.247c-0,168.262 -136.912,305.204 -305.204,305.204Z" style="fill:#eee;fill-rule:nonzero;"/></g><defs><linearGradient id="_Linear1" x1="0" y1="0" x2="1" y2="0" gradientUnits="userSpaceOnUse" gradientTransform="matrix(817.52,0,0,801.496,1265.13,798.449)"><stop offset="0" style="stop-color:#828282;stop-opacity:1"/><stop offset="1" style="stop-color:#3a3a3a;stop-opacity:1"/></linearGradient></defs></svg>