<?xml version="1.0" encoding="UTF-8" standalone="no"?><!DOCTYPE svg PUBLIC "-//W3C//DTD SVG 1.1//EN" "http://www.w3.org/Graphics/SVG/1.1/DTD/svg11.dtd"><svg width="100%" height="100%" viewBox="0 0 2088 2088" version="1.1" xmlns="http://www.w3.org/2000/svg" xmlns:xlink="http://www.w3.org/1999/xlink" xml:space="preserve" xmlns:serif="http://www.serif.com/" style="fill-rule:evenodd;clip-rule:evenodd;stroke-linejoin:round;stroke-miterlimit:2;"><rect id="Artboard3" x="0.343" y="0.298" width="2083.33" height="2083.33" style="fill:none;"/><path d="M1678.39,1589.28l-1152.68,-0c-235.474,-0 -427.058,-191.585 -427.058,-427.058c-0,-235.473 191.553,-427.089 427.058,-427.089c38.379,-0 76.758,5.323 114.328,15.906c66.704,-156.412 220.813,-259.535 392.538,-259.535c123.262,0 238.4,52.293 319.671,144.335c37.695,-15.906 78.471,-24.248 119.309,-24.248c169.267,0 306.971,137.705 306.971,306.971c0,23.75 -2.863,47.437 -8.435,70.814c126.561,39.53 215.272,157.718 215.272,292.933c-0,169.235 -137.704,306.971 -306.971,306.971Z" style="fill:#eee;fill-rule:nonzero;"/></svg>