<?xml version="1.0" encoding="UTF-8" standalone="no"?><!DOCTYPE svg PUBLIC "-//W3C//DTD SVG 1.1//EN" "http://www.w3.org/Graphics/SVG/1.1/DTD/svg11.dtd"><svg width="100%" height="100%" viewBox="0 0 2088 2088" version="1.1" xmlns="http://www.w3.org/2000/svg" xmlns:xlink="http://www.w3.org/1999/xlink" xml:space="preserve" xmlns:serif="http://www.serif.com/" style="fill-rule:evenodd;clip-rule:evenodd;stroke-linejoin:round;stroke-miterlimit:2;"><rect id="Artboard3" x="0.343" y="1.868" width="2083.33" height="2083.33" style="fill:none;"/><clipPath id="_clip1"><rect x="0.343" y="1.868" width="2083.33" height="2083.33"/></clipPath><g clip-path="url(#_clip1)"><g><path d="M1835.93,1122.05l-762.538,-0c-162.553,-0 -294.808,-132.421 -294.808,-295.176c-0,-162.756 132.234,-295.198 294.808,-295.198c7.76,0 15.52,0.316 23.263,0.948c59.61,24.549 113.384,62.666 157.279,112.378c37.694,-15.906 78.47,-24.248 119.308,-24.248c169.267,0 306.972,137.704 306.972,306.971c-0,23.75 -2.864,47.437 -8.436,70.813c68.483,21.391 125.883,65.811 164.152,123.512Zm-661.347,-621.753c53.245,-83.978 146.453,-137.013 248.712,-137.013c85.09,-0 164.572,36.144 220.676,99.762c26.021,-10.994 54.17,-16.76 82.362,-16.76c116.849,-0 211.909,95.179 211.909,212.174c0,16.415 -1.976,32.788 -5.823,48.945c87.368,27.323 148.608,109.013 148.608,202.471c-0,103.919 -75.027,190.654 -173.708,208.718c-36.474,-68.846 -94.15,-125.32 -165.204,-159.957c0.883,-10.284 1.328,-20.593 1.328,-30.912c-0,-204.132 -166.069,-370.2 -370.201,-370.2c-34.441,-0 -68.848,4.909 -101.972,14.422c-29.43,-28.003 -61.902,-52.006 -96.687,-71.65Z" style="fill:#d8d8d8;fill-rule:nonzero;"/><path d="M1580.08,1598.45l-1152.68,-0c-235.473,-0 -427.058,-191.585 -427.058,-427.058c0,-235.473 191.554,-427.089 427.058,-427.089c38.379,-0 76.759,5.322 114.328,15.906c66.705,-156.412 220.813,-259.535 392.539,-259.535c123.262,0 238.399,52.293 319.671,144.335c37.694,-15.906 78.47,-24.248 119.308,-24.248c169.267,0 306.972,137.704 306.972,306.971c-0,23.75 -2.864,47.437 -8.436,70.813c126.561,39.531 215.272,157.719 215.272,292.934c0,169.235 -137.704,306.971 -306.971,306.971Z" style="fill:#eee;fill-rule:nonzero;"/></g></g></svg>