<?xml version="1.0" encoding="UTF-8" standalone="no"?><!DOCTYPE svg PUBLIC "-//W3C//DTD SVG 1.1//EN" "http://www.w3.org/Graphics/SVG/1.1/DTD/svg11.dtd"><svg width="100%" height="100%" viewBox="0 0 2088 2088" version="1.1" xmlns="http://www.w3.org/2000/svg" xmlns:xlink="http://www.w3.org/1999/xlink" xml:space="preserve" xmlns:serif="http://www.serif.com/" style="fill-rule:evenodd;clip-rule:evenodd;stroke-linejoin:round;stroke-miterlimit:2;"><rect id="Artboard3" x="0.343" y="1.868" width="2083.33" height="2083.33" style="fill:none;"/><g><path d="M1837.26,1117.25l-762.538,0c-162.552,0 -294.808,-132.42 -294.808,-295.176c0,-162.755 132.234,-295.197 294.808,-295.197c7.761,-0 15.521,0.315 23.264,0.948c59.61,24.549 113.383,62.666 157.278,112.377c37.695,-15.906 78.471,-24.247 119.309,-24.247c169.267,-0 306.971,137.704 306.971,306.971c-0,23.749 -2.864,47.437 -8.435,70.813c68.482,21.39 125.882,65.81 164.151,123.511Zm-661.346,-621.752c53.244,-83.978 146.453,-137.014 248.711,-137.014c85.09,0 164.573,36.144 220.676,99.762c26.022,-10.994 54.17,-16.76 82.362,-16.76c116.849,0 211.91,95.18 211.91,212.174c-0,16.416 -1.977,32.788 -5.823,48.945c87.368,27.323 148.607,109.013 148.607,202.471c0,103.919 -75.027,190.654 -173.707,208.719c-36.475,-68.847 -94.151,-125.321 -165.205,-159.957c0.883,-10.285 1.328,-20.594 1.328,-30.912c0,-204.132 -166.068,-370.201 -370.2,-370.201c-34.442,0 -68.848,4.91 -101.973,14.422c-29.429,-28.003 -61.902,-52.005 -96.686,-71.649Z" style="fill:#d8d8d8;fill-rule:nonzero;"/><g><path d="M327.065,1581.42c-0.152,-3.034 -0.228,-6.078 -0.228,-9.14c0,-103.121 181.3,-343.738 181.3,-343.738c0,-0 181.3,240.617 181.3,343.738c0,7.225 -0.423,14.351 -1.249,21.366l-259.465,0c-35.014,0 -69.059,-4.236 -101.658,-12.226Zm-60.729,-19.851c-155.173,-64.029 -264.67,-216.963 -264.67,-394.981c-0,-235.473 191.553,-427.089 427.057,-427.089c38.38,0 76.759,5.323 114.329,15.906c66.704,-156.412 220.812,-259.534 392.538,-259.534c123.262,-0 238.399,52.293 319.671,144.334c37.695,-15.906 78.471,-24.247 119.309,-24.247c169.267,-0 306.971,137.704 306.971,306.971c-0,23.749 -2.864,47.437 -8.435,70.813c126.561,39.531 215.272,157.719 215.272,292.933c-0,169.236 -137.705,306.971 -306.972,306.971l-831.964,0c0.618,-7.053 0.933,-14.173 0.933,-21.366c-0,-37.821 -17.718,-91.481 -45.645,-147.077c-55.506,-110.499 -147.924,-233.332 -147.924,-233.332c-11.514,-15.281 -29.536,-24.267 -48.669,-24.267c-19.133,0 -37.155,8.986 -48.669,24.267c0,-0 -92.418,122.833 -147.924,233.332c-25.385,50.537 -42.335,99.474 -45.208,136.366Z" style="fill:#eee;fill-rule:nonzero;"/><path d="M508.137,1228.54c0,-0 -181.3,240.617 -181.3,343.738c0,100.062 81.238,181.3 181.3,181.3c100.062,0 181.3,-81.238 181.3,-181.3c0,-103.121 -181.3,-343.738 -181.3,-343.738Z" style="fill:#00d1ff;"/></g></g></svg>