<?xml version="1.0" encoding="UTF-8" standalone="no"?><!DOCTYPE svg PUBLIC "-//W3C//DTD SVG 1.1//EN" "http://www.w3.org/Graphics/SVG/1.1/DTD/svg11.dtd"><svg width="100%" height="100%" viewBox="0 0 2088 2088" version="1.1" xmlns="http://www.w3.org/2000/svg" xmlns:xlink="http://www.w3.org/1999/xlink" xml:space="preserve" xmlns:serif="http://www.serif.com/" style="fill-rule:evenodd;clip-rule:evenodd;stroke-linejoin:round;stroke-miterlimit:2;"><rect id="Artboard3" x="2.978" y="1.868" width="2083.33" height="2083.33" style="fill:none;"/><g><path d="M426.687,1582.48c-0.151,-3.034 -0.227,-6.078 -0.227,-9.14c-0,-103.122 181.3,-343.739 181.3,-343.739c-0,0 181.3,240.617 181.3,343.739c-0,7.225 -0.424,14.351 -1.249,21.366l-259.465,0c-35.015,0 -69.059,-4.236 -101.659,-12.226Zm-60.728,-19.851c-155.173,-64.029 -264.671,-216.963 -264.671,-394.981c0,-235.473 191.554,-427.089 427.058,-427.089c38.379,0 76.759,5.323 114.328,15.906c66.705,-156.412 220.813,-259.534 392.539,-259.534c123.262,-0 238.399,52.293 319.671,144.334c37.694,-15.906 78.47,-24.248 119.308,-24.248c169.267,0 306.972,137.705 306.972,306.972c-0,23.749 -2.864,47.437 -8.436,70.813c126.561,39.531 215.272,157.719 215.272,292.933c0,169.236 -137.704,306.971 -306.971,306.971l-831.964,0c0.618,-7.053 0.932,-14.173 0.932,-21.366c0,-37.821 -17.717,-91.481 -45.644,-147.077c-55.506,-110.499 -147.925,-233.332 -147.925,-233.332c-11.513,-15.281 -29.535,-24.267 -48.668,-24.267c-19.133,-0 -37.155,8.986 -48.669,24.267c0,-0 -92.418,122.833 -147.924,233.332c-25.386,50.537 -42.335,99.474 -45.208,136.366Z" style="fill:#eee;fill-rule:nonzero;"/><path d="M607.76,1229.6c-0,0 -181.3,240.617 -181.3,343.739c-0,100.062 81.238,181.3 181.3,181.3c100.062,-0 181.3,-81.238 181.3,-181.3c-0,-103.122 -181.3,-343.739 -181.3,-343.739Z" style="fill:#00d1ff;"/></g></svg>