<?xml version="1.0" encoding="UTF-8" standalone="no"?><!DOCTYPE svg PUBLIC "-//W3C//DTD SVG 1.1//EN" "http://www.w3.org/Graphics/SVG/1.1/DTD/svg11.dtd"><svg width="100%" height="100%" viewBox="0 0 2088 2088" version="1.1" xmlns="http://www.w3.org/2000/svg" xmlns:xlink="http://www.w3.org/1999/xlink" xml:space="preserve" xmlns:serif="http://www.serif.com/" style="fill-rule:evenodd;clip-rule:evenodd;stroke-linecap:round;stroke-linejoin:round;stroke-miterlimit:1.5;"><rect id="Artboard3" x="2.978" y="1.868" width="2083.33" height="2083.33" style="fill:none;"/><g><path d="M546.972,1592.88l-18.626,0c-235.473,0 -427.058,-191.584 -427.058,-427.058c0,-235.473 191.554,-427.089 427.058,-427.089c38.379,0 76.759,5.323 114.328,15.906c66.705,-156.411 220.813,-259.534 392.539,-259.534c123.262,-0 238.399,52.293 319.671,144.334c37.694,-15.905 78.47,-24.247 119.308,-24.247c169.267,-0 306.972,137.704 306.972,306.971c-0,23.75 -2.864,47.437 -8.436,70.813c126.561,39.531 215.272,157.719 215.272,292.933c0,169.236 -137.704,306.971 -306.971,306.971l-837.412,0l160.186,-182.029c12.248,-13.918 15.211,-33.718 7.574,-50.612c-7.637,-16.893 -24.459,-27.749 -42.998,-27.749l-41.969,-0l108.664,-128.734c11.845,-14.033 14.473,-33.663 6.736,-50.317c-7.736,-16.654 -24.432,-27.308 -42.795,-27.308l-346.086,0c-17.849,0 -34.17,10.071 -42.175,26.024l-158.895,316.657c-7.34,14.627 -6.577,32.014 2.018,45.942c8.594,13.928 23.791,22.408 40.157,22.408l52.938,0l0,55.718Zm47.188,0l-0,-102.905l-100.126,-0l158.895,-316.656l346.086,-0l-174.187,206.358l143.551,0l-187.619,213.203l-186.6,0Z" style="fill:#eee;fill-rule:nonzero;"/><path d="M824.828,1379.68l143.551,0l-374.219,425.249l-0,-314.951l-100.126,-0l158.895,-316.656l346.086,-0l-174.187,206.358Z" style="fill:#ff8d00;stroke:#ff8d00;stroke-width:12.34px;"/></g></svg>