<?xml version="1.0" encoding="UTF-8" standalone="no"?><!DOCTYPE svg PUBLIC "-//W3C//DTD SVG 1.1//EN" "http://www.w3.org/Graphics/SVG/1.1/DTD/svg11.dtd"><svg width="100%" height="100%" viewBox="0 0 2088 2088" version="1.1" xmlns="http://www.w3.org/2000/svg" xmlns:xlink="http://www.w3.org/1999/xlink" xml:space="preserve" xmlns:serif="http://www.serif.com/" style="fill-rule:evenodd;clip-rule:evenodd;stroke-linejoin:round;stroke-miterlimit:2;"><rect id="Artboard3" x="2.978" y="1.868" width="2083.33" height="2083.33" style="fill:none;"/><g><path d="M1550.01,1363.58c-0,17.245 -14.012,31.176 -31.176,31.176l-124.504,0l0,124.504c0,17.204 -14.011,31.175 -31.175,31.175c-17.245,0 -31.176,-14.011 -31.176,-31.175l-0,-186.895l186.895,-0c17.164,0.04 31.136,14.011 31.136,31.215Zm-975.311,-601.64l186.895,-0l0,-186.855c0,-17.205 -13.971,-31.176 -31.176,-31.176c-17.204,0 -31.215,13.971 -31.215,31.176l-0,124.503l-124.504,0c-17.204,0 -31.176,13.972 -31.176,31.176c0,17.205 13.972,31.176 31.176,31.176Zm-38.521,594.295c0,17.205 13.972,31.176 31.176,31.176l124.584,0l-0,124.544c-0,17.244 13.971,31.175 31.175,31.175c17.205,0 31.176,-13.971 31.176,-31.175l0,-186.935l-186.935,-0c-17.204,-0 -31.176,13.971 -31.176,31.215Zm1006.53,-632.696c-0,-17.244 -13.972,-31.176 -31.176,-31.176l-124.583,0l-0,-124.583c-0,-17.205 -13.972,-31.176 -31.176,-31.176c-17.205,0 -31.176,13.971 -31.176,31.176l0,186.975l186.975,-0c17.164,-0.04 31.136,-14.051 31.136,-31.216Zm155.24,320.021c-0,17.204 -13.971,31.175 -31.176,31.175l-136.758,0l74.886,74.766c12.174,12.215 12.174,32.014 -0,44.189c-6.068,5.988 -14.131,9.102 -22.115,9.102c-7.904,-0 -15.887,-2.994 -21.955,-9.102l-118.915,-118.955l-119.553,0c-6.507,59.039 -31.535,112.369 -68.978,154.682l223.898,-0c17.245,-0 31.176,14.011 31.176,31.175c0,17.245 -13.971,31.176 -31.176,31.176l-186.256,0l0,186.296c0,17.205 -14.011,31.176 -31.176,31.176c-17.244,0 -31.175,-14.011 -31.175,-31.176l-0,-223.938c-42.233,37.243 -95.484,62.112 -154.322,68.618l-0,119.554l118.875,118.955c12.215,12.175 12.215,31.934 -0,44.069c-6.068,6.068 -14.051,9.181 -21.995,9.181c-7.944,0 -16.007,-3.073 -22.074,-9.181l-74.806,-74.886l-0,136.799c-0,17.204 -13.972,31.175 -31.176,31.175c-17.205,0 -31.176,-14.011 -31.176,-31.175l0,-136.799l-74.846,74.886c-12.175,12.215 -31.934,12.215 -44.109,0c-12.175,-12.175 -12.175,-31.934 0,-44.069l118.915,-118.955l0,-119.554c-58.839,-6.506 -112.049,-31.415 -154.282,-68.538l0,223.858c0,17.205 -13.971,31.176 -31.176,31.176c-17.204,0 -31.175,-14.011 -31.175,-31.176l-0,-186.296l-186.217,0c-17.204,0 -31.176,-13.971 -31.176,-31.176c0,-17.204 13.972,-31.175 31.176,-31.175l223.819,-0c-37.363,-42.313 -62.391,-95.643 -68.978,-154.682l-119.633,0l-118.915,118.915c-6.068,6.028 -14.051,9.142 -22.035,9.142c-7.983,-0 -15.967,-3.074 -22.035,-9.142c-12.214,-12.214 -12.214,-31.974 0,-44.149l74.806,-74.766l-136.758,0c-17.244,-0.04 -31.216,-14.051 -31.216,-31.215c0,-17.245 13.972,-31.176 31.176,-31.176l136.758,-0l-74.805,-74.846c-12.175,-12.175 -12.175,-31.974 -0,-44.149c12.214,-12.215 31.934,-12.215 44.109,0l118.915,118.915l119.553,0c6.507,-58.879 31.416,-112.129 68.659,-154.322l-223.5,0c-17.204,0 -31.175,-13.971 -31.175,-31.176c-0,-17.204 13.971,-31.175 31.175,-31.175l186.257,-0l-0,-186.297c-0,-17.204 13.971,-31.175 31.175,-31.175c17.205,-0 31.176,13.971 31.176,31.175l0,223.5c42.233,-37.243 95.444,-62.032 154.282,-68.539l0,-119.554l-118.875,-118.915c-12.175,-12.174 -12.175,-31.934 0,-44.109c12.175,-12.175 31.934,-12.175 44.109,0l74.806,74.846l0,-136.718c-0.04,-17.205 13.932,-31.176 31.176,-31.176c17.205,0 31.176,13.971 31.176,31.176l-0,136.758l74.846,-74.846c12.214,-12.255 31.934,-12.255 44.069,0c12.215,12.175 12.215,31.934 -0,44.109l-118.875,118.955l-0,119.594c58.878,6.546 112.129,31.455 154.322,68.579l-0,-223.5c-0,-17.244 13.971,-31.176 31.175,-31.176c17.205,0 31.176,13.971 31.176,31.176l0,186.256l186.256,0c17.245,0 31.176,13.972 31.176,31.176c0,17.205 -13.971,31.176 -31.176,31.176l-223.499,-0c37.203,42.233 62.112,95.483 68.579,154.322l119.553,-0l118.915,-118.915c12.175,-12.175 31.895,-12.175 44.149,-0c12.175,12.175 12.175,31.974 0,44.149l-74.885,74.806l136.798,-0c17.125,-0.08 31.056,13.851 31.056,31.136Zm-439.335,-31.216c-13.812,-95.443 -88.897,-170.489 -184.34,-184.3c-10.259,-1.477 -20.518,-3.154 -31.176,-3.154c-10.698,0 -20.917,1.677 -31.176,3.154c-95.443,13.811 -170.528,88.897 -184.34,184.3c-1.517,10.259 -3.153,20.518 -3.153,31.176c-0,10.658 1.636,20.837 3.153,31.175c13.812,95.444 88.897,170.489 184.34,184.261c10.259,1.437 20.518,3.153 31.176,3.153c10.658,0 20.917,-1.716 31.176,-3.153c95.443,-13.812 170.528,-88.857 184.34,-184.261c1.477,-10.338 3.154,-20.557 3.154,-31.175c-0,-10.618 -1.717,-20.917 -3.154,-31.176Z" style="fill:#fff;fill-rule:nonzero;"/></g></svg>