<?xml version="1.0" encoding="UTF-8" standalone="no"?><!DOCTYPE svg PUBLIC "-//W3C//DTD SVG 1.1//EN" "http://www.w3.org/Graphics/SVG/1.1/DTD/svg11.dtd"><svg width="100%" height="100%" viewBox="0 0 2088 2088" version="1.1" xmlns="http://www.w3.org/2000/svg" xmlns:xlink="http://www.w3.org/1999/xlink" xml:space="preserve" xmlns:serif="http://www.serif.com/" style="fill-rule:evenodd;clip-rule:evenodd;stroke-linejoin:round;stroke-miterlimit:2;"><rect id="Artboard3" x="2.978" y="1.868" width="2083.33" height="2083.33" style="fill:none;"/><clipPath id="_clip1"><rect id="mist-svgrepo-com.svg" x="364.404" y="363.294" width="1360.48" height="1360.48"/></clipPath><g clip-path="url(#_clip1)"><g><g><g><path d="M1714.66,837.598c-9.997,-8.284 -99.399,-81.404 -162.236,-81.404c-37.132,-0 -65.695,23.136 -91.115,43.701c-19.709,15.709 -38.274,30.848 -55.412,30.848c-15.424,-0 -33.133,-14.567 -51.984,-29.991c-25.421,-20.851 -54.269,-44.558 -91.972,-44.558c-37.417,-0 -65.409,23.421 -90.258,43.986c-19.137,15.996 -36.846,30.848 -53.698,30.848c-17.423,0 -35.989,-15.138 -55.697,-31.419c-24.564,-20.279 -52.556,-43.129 -88.259,-43.129c-37.132,-0 -65.694,23.135 -91.115,43.7c-19.708,15.71 -38.274,30.848 -55.412,30.848c-16.852,0 -34.846,-15.138 -53.698,-30.848c-24.849,-20.565 -52.841,-43.986 -90.258,-43.986c-37.417,-0 -65.408,23.421 -90.258,43.986c-19.137,15.996 -36.846,30.848 -53.698,30.848c-30.276,0 -93.4,-39.988 -128.532,-68.265c-12.282,-9.997 -30.276,-7.997 -40.273,4.285c-9.997,12.282 -7.998,30.276 4.284,40.273c10.283,8.283 101.969,81.118 164.521,81.118c37.417,0 65.409,-23.421 90.258,-43.986c19.137,-15.995 36.846,-30.848 53.698,-30.848c16.852,-0 34.847,15.138 53.698,30.848c24.85,20.565 52.841,43.986 90.258,43.986c37.132,0 65.694,-23.136 91.115,-43.701c19.709,-15.709 38.274,-30.847 55.412,-30.847c15.424,-0 33.133,14.567 51.984,29.99c25.421,20.851 54.269,44.558 91.972,44.558c37.417,0 65.409,-23.421 90.258,-43.986c19.137,-15.995 36.846,-30.848 53.698,-30.848c17.423,-0 35.989,15.138 55.697,31.419c24.564,20.279 52.556,43.13 88.259,43.13c37.131,-0 65.694,-23.136 91.115,-43.701c19.708,-15.71 38.274,-30.848 55.412,-30.848c29.99,-0 91.4,39.702 125.39,67.979c5.427,4.285 11.711,6.57 18.28,6.57c8.283,-0 16.281,-3.428 22.279,-10.283c9.997,-12.282 8.283,-30.276 -3.713,-40.273Z" style="fill:#fff;fill-rule:nonzero;"/><path d="M375.066,585.96c10.283,8.283 101.969,81.118 164.521,81.118c37.417,0 65.409,-23.421 90.258,-43.986c19.137,-15.995 36.846,-30.848 53.698,-30.848c16.852,0 34.847,15.138 53.698,30.848c24.85,20.565 52.841,43.986 90.258,43.986c37.132,0 65.694,-23.135 91.115,-43.701c19.709,-15.709 38.274,-30.847 55.412,-30.847c15.424,-0 33.133,14.567 51.984,29.991c25.421,20.85 54.269,44.557 91.972,44.557c37.417,0 65.409,-23.421 90.258,-43.986c19.137,-15.995 36.846,-30.848 53.698,-30.848c17.423,0 35.989,15.138 55.697,31.419c24.564,20.28 52.556,43.13 88.259,43.13c37.131,-0 65.694,-23.136 91.115,-43.701c19.708,-15.71 38.274,-30.848 55.412,-30.848c29.99,0 91.4,39.702 125.39,67.979c5.427,4.285 11.711,6.57 18.28,6.57c8.283,-0 16.281,-3.428 22.279,-10.283c9.997,-12.282 8.283,-30.276 -3.713,-40.273c-9.997,-8.569 -99.399,-81.404 -162.236,-81.404c-37.132,0 -65.695,23.136 -91.115,43.701c-19.709,15.709 -38.274,30.848 -55.412,30.848c-15.424,-0 -33.133,-14.567 -51.984,-29.991c-25.421,-20.851 -54.269,-44.558 -91.972,-44.558c-37.417,0 -65.409,23.421 -90.258,43.987c-19.137,15.995 -36.846,30.847 -53.698,30.847c-17.423,0 -35.989,-15.138 -55.697,-31.419c-24.564,-20.279 -52.556,-43.129 -88.259,-43.129c-37.132,-0 -65.694,23.135 -91.115,43.701c-19.708,15.709 -38.274,30.847 -55.412,30.847c-16.852,0 -34.846,-15.138 -53.698,-30.847c-24.849,-20.566 -52.841,-43.987 -90.258,-43.987c-37.417,0 -65.408,23.421 -90.258,43.987c-19.137,15.995 -36.846,30.847 -53.698,30.847c-30.276,0 -93.4,-39.987 -128.532,-68.265c-12.282,-9.996 -30.276,-7.997 -40.273,4.285c-9.997,12.282 -7.998,30.276 4.284,40.273Z" style="fill:#fff;fill-rule:nonzero;"/><path d="M1714.66,1280.03c-9.997,-8.283 -99.399,-81.404 -162.236,-81.404c-37.132,0 -65.695,23.136 -91.115,43.701c-19.709,15.71 -38.274,30.848 -55.412,30.848c-15.424,-0 -33.133,-14.567 -51.984,-29.991c-25.421,-20.851 -54.269,-44.558 -91.972,-44.558c-37.417,0 -65.409,23.422 -90.258,43.987c-19.137,15.995 -36.846,30.847 -53.698,30.847c-17.423,0 -35.989,-15.138 -55.697,-31.419c-24.564,-20.279 -52.556,-43.129 -88.259,-43.129c-37.132,-0 -65.694,23.136 -91.115,43.701c-19.708,15.709 -38.274,30.847 -55.412,30.847c-16.852,0 -34.846,-15.138 -53.698,-30.847c-24.849,-20.565 -52.841,-43.987 -90.258,-43.987c-37.417,0 -65.408,23.422 -90.258,43.987c-19.137,15.995 -36.846,30.847 -53.698,30.847c-30.276,0 -93.4,-39.987 -128.532,-68.264c-12.282,-9.997 -30.276,-7.998 -40.273,4.284c-9.997,12.282 -7.998,30.276 4.284,40.273c10.283,8.284 101.969,81.118 164.521,81.118c37.417,0 65.409,-23.421 90.258,-43.986c19.137,-15.995 36.846,-30.848 53.698,-30.848c16.852,0 34.847,15.138 53.698,30.848c24.85,20.565 52.841,43.986 90.258,43.986c37.132,0 65.694,-23.135 91.115,-43.701c19.709,-15.709 38.274,-30.847 55.412,-30.847c15.424,-0 33.133,14.567 51.984,29.991c25.421,20.85 54.269,44.557 91.972,44.557c37.417,0 65.409,-23.421 90.258,-43.986c19.137,-15.995 36.846,-30.848 53.698,-30.848c17.423,0 35.989,15.138 55.697,31.419c24.564,20.28 52.556,43.13 88.259,43.13c37.131,-0 65.694,-23.136 91.115,-43.701c19.708,-15.71 38.274,-30.848 55.412,-30.848c29.99,0 91.4,39.702 125.39,67.979c5.427,4.285 11.711,6.57 18.28,6.57c8.283,-0 16.281,-3.428 22.279,-10.283c9.997,-12.282 8.283,-30.276 -3.713,-40.273Z" style="fill:#fff;fill-rule:nonzero;"/><path d="M1714.66,1058.96c-9.997,-8.284 -99.399,-81.404 -162.236,-81.404c-37.132,-0 -65.695,23.136 -91.115,43.701c-19.709,15.709 -38.274,30.847 -55.412,30.847c-15.424,0 -33.133,-14.566 -51.984,-29.99c-25.421,-20.851 -54.269,-44.558 -91.972,-44.558c-37.417,-0 -65.409,23.421 -90.258,43.986c-19.137,15.996 -36.846,30.848 -53.698,30.848c-17.423,0 -35.989,-15.138 -55.697,-31.419c-24.564,-20.279 -52.556,-43.13 -88.259,-43.13c-37.132,0 -65.694,23.136 -91.115,43.701c-19.708,15.71 -38.274,30.848 -55.412,30.848c-16.852,0 -34.846,-15.138 -53.698,-30.848c-24.849,-20.565 -52.841,-43.986 -90.258,-43.986c-37.417,-0 -65.408,23.421 -90.258,43.986c-19.137,15.996 -36.846,30.848 -53.698,30.848c-30.276,0 -93.4,-39.988 -128.532,-68.265c-12.282,-9.997 -30.276,-7.997 -40.273,4.285c-9.997,12.282 -7.998,30.276 4.284,40.273c10.283,8.283 101.969,81.118 164.521,81.118c37.417,0 65.409,-23.421 90.258,-43.986c19.137,-15.996 36.846,-30.848 53.698,-30.848c16.852,-0 34.847,15.138 53.698,30.848c24.85,20.565 52.841,43.986 90.258,43.986c37.132,0 65.694,-23.136 91.115,-43.701c19.709,-15.709 38.274,-30.848 55.412,-30.848c15.424,0 33.133,14.567 51.984,29.991c25.421,20.851 54.269,44.558 91.972,44.558c37.417,0 65.409,-23.421 90.258,-43.986c19.137,-15.996 36.846,-30.848 53.698,-30.848c17.423,-0 35.989,15.138 55.697,31.419c24.564,20.279 52.556,43.13 88.259,43.13c37.131,-0 65.694,-23.136 91.115,-43.701c19.708,-15.71 38.274,-30.848 55.412,-30.848c29.99,-0 91.4,39.702 125.39,67.979c5.427,4.284 11.711,6.57 18.28,6.57c8.283,-0 16.281,-3.714 22.279,-10.283c9.997,-12.282 8.283,-30.277 -3.713,-40.273Z" style="fill:#fff;fill-rule:nonzero;"/><path d="M1714.66,1501.39c-9.997,-8.569 -99.399,-81.404 -162.236,-81.404c-37.132,0 -65.695,23.136 -91.115,43.701c-19.709,15.709 -38.274,30.848 -55.412,30.848c-15.424,-0 -33.133,-14.567 -51.984,-29.991c-25.421,-20.851 -54.269,-44.558 -91.972,-44.558c-37.417,0 -65.409,23.421 -90.258,43.987c-19.137,15.995 -36.846,30.847 -53.698,30.847c-17.423,0 -35.989,-15.138 -55.697,-31.419c-24.564,-20.279 -52.556,-43.129 -88.259,-43.129c-37.132,-0 -65.694,23.135 -91.115,43.701c-19.708,15.709 -38.274,30.847 -55.412,30.847c-16.852,0 -34.846,-15.138 -53.698,-30.847c-24.849,-20.566 -52.841,-43.987 -90.258,-43.987c-37.417,0 -65.408,23.421 -90.258,43.987c-19.137,15.995 -36.846,30.847 -53.698,30.847c-30.276,0 -93.4,-39.987 -128.532,-68.265c-12.282,-9.996 -30.276,-7.997 -40.273,4.285c-9.997,12.282 -7.998,30.276 4.284,40.273c10.283,8.283 101.969,81.118 164.521,81.118c37.417,0 65.409,-23.421 90.258,-43.986c19.137,-15.995 36.846,-30.848 53.698,-30.848c16.852,0 34.847,15.138 53.698,30.848c24.85,20.565 52.841,43.986 90.258,43.986c37.132,0 65.694,-23.135 91.115,-43.701c19.709,-15.709 38.274,-30.847 55.412,-30.847c15.424,-0 33.133,14.567 51.984,29.991c25.421,20.85 54.269,44.557 91.972,44.557c37.417,0 65.409,-23.421 90.258,-43.986c19.137,-15.995 36.846,-30.848 53.698,-30.848c17.423,0 35.989,15.138 55.697,31.419c24.564,20.28 52.556,43.13 88.259,43.13c37.131,-0 65.694,-23.136 91.115,-43.701c19.708,-15.71 38.274,-30.848 55.412,-30.848c29.99,0 91.4,39.702 125.39,67.979c5.427,4.285 11.711,6.57 18.28,6.57c8.283,-0 16.281,-3.428 22.279,-10.283c9.997,-12.282 8.283,-30.276 -3.713,-40.273Z" style="fill:#fff;fill-rule:nonzero;"/></g></g></g></g></svg>