<?xml version="1.0" encoding="UTF-8" standalone="no"?><!DOCTYPE svg PUBLIC "-//W3C//DTD SVG 1.1//EN" "http://www.w3.org/Graphics/SVG/1.1/DTD/svg11.dtd"><svg width="100%" height="100%" viewBox="0 0 2088 2084" version="1.1" xmlns="http://www.w3.org/2000/svg" xmlns:xlink="http://www.w3.org/1999/xlink" xml:space="preserve" xmlns:serif="http://www.serif.com/" style="fill-rule:evenodd;clip-rule:evenodd;stroke-linejoin:round;stroke-miterlimit:2;"><rect id="Artboard3" x="2.989" y="0" width="2083.33" height="2083.33" style="fill:none;"/><g><path d="M1044.02,276.667c422.466,0 765.456,342.99 765.456,765.454c-0,422.466 -342.99,765.462 -765.456,765.462c-422.466,-0 -765.454,-342.996 -765.454,-765.462c0,-422.464 342.988,-765.454 765.454,-765.454Zm-0,640.291l260.782,-260.782c34.541,-34.541 90.624,-34.541 125.165,-0c34.539,34.539 34.539,90.624 -0,125.163l-260.783,260.782l260.783,260.782c34.539,34.533 34.539,90.626 -0,125.159c-34.541,34.553 -90.624,34.553 -125.165,0l-260.782,-260.778l-260.783,260.778c-34.538,34.553 -90.623,34.553 -125.162,0c-34.541,-34.533 -34.541,-90.626 -0,-125.159l260.782,-260.782l-260.782,-260.782c-34.541,-34.539 -34.541,-90.624 -0,-125.163c34.539,-34.541 90.624,-34.541 125.162,-0l260.783,260.782Z" style="fill:#fff;fill-opacity:0.75;"/></g></svg>