<?xml version="1.0" encoding="UTF-8" standalone="no"?>
<!DOCTYPE svg PUBLIC "-//W3C//DTD SVG 1.1//EN" "http://www.w3.org/Graphics/SVG/1.1/DTD/svg11.dtd">
<svg width="100%" height="100%" viewBox="0 0 720 1946" version="1.1" xmlns="http://www.w3.org/2000/svg" xmlns:xlink="http://www.w3.org/1999/xlink" xml:space="preserve" xmlns:serif="http://www.serif.com/" style="fill-rule:evenodd;clip-rule:evenodd;stroke-linejoin:round;stroke-miterlimit:1.5;">
    <g transform="matrix(1,0,0,1,-699,-115)">
        <g>
            <g transform="matrix(1,0,0,1,0,82.954)">
                <circle cx="1058.78" cy="757.171" r="82.954" style="fill:white;"/>
            </g>
            <g transform="matrix(1.27047,0,0,1.27047,-312.106,-498.917)">
                <circle cx="1079.05" cy="1735.93" r="181.341" style="fill:white;"/>
            </g>
            <g transform="matrix(1,0,0,2.18096,-3.97419,-1861.15)">
                <rect x="979.804" y="1238.57" width="165.908" height="331.816" style="fill:white;"/>
            </g>
            <g transform="matrix(1.75419,0,0,1.75419,-347.726,-344.803)">
                <path d="M708.56,379.13C708.885,327.946 750.54,286.49 801.801,286.49C853.264,286.49 895.044,328.271 895.044,379.733L895.044,1010.95C947.709,1042.66 982.962,1100.38 982.962,1166.27C982.962,1266.25 901.787,1347.43 801.801,1347.43C701.816,1347.43 620.641,1266.25 620.641,1166.27C620.641,1100.38 655.894,1042.66 708.558,1010.95L708.558,379.733L708.56,379.13Z" style="fill:none;stroke:white;stroke-width:47.8px;"/>
            </g>
            <g transform="matrix(2.02562,0,0,2.02562,-992.676,-1781.23)">
                <text x="930.742px" y="1776.81px" style="font-family:'ProductSans-Regular', 'Product Sans', sans-serif;font-size:153.586px;fill:rgb(38,38,38);">FL</text>
            </g>
        </g>
    </g>
</svg>
