<?xml version="1.0" encoding="UTF-8" standalone="no"?>
<!DOCTYPE svg PUBLIC "-//W3C//DTD SVG 1.1//EN" "http://www.w3.org/Graphics/SVG/1.1/DTD/svg11.dtd">
<svg width="100%" height="100%" viewBox="0 0 355 369" version="1.1" xmlns="http://www.w3.org/2000/svg" xmlns:xlink="http://www.w3.org/1999/xlink" xml:space="preserve" xmlns:serif="http://www.serif.com/" style="fill-rule:evenodd;clip-rule:evenodd;stroke-linejoin:round;stroke-miterlimit:2;">
    <g transform="matrix(1,0,0,1,-429,-1219)">
        <g transform="matrix(2.19132,0,0,1.20165,0,0)">
            <g id="refresh.svg" transform="matrix(1.36904,0,0,2.49657,276.678,1167.91)">
                <g transform="matrix(1,0,0,1,-59.02,-61.44)">
                    <clipPath id="_clip1">
                        <rect x="0" y="0" width="118.04" height="122.88"/>
                    </clipPath>
                    <g clip-path="url(#_clip1)">
                        <path d="M16.08,59.26C16.08,63.671 12.451,67.3 8.04,67.3C3.629,67.3 0,63.671 0,59.26C0.013,26.902 26.642,0.283 59,0.283C72.96,0.283 86.477,5.238 97.13,14.26L97.13,8C97.13,3.589 100.759,-0.04 105.17,-0.04C109.581,-0.04 113.21,3.589 113.21,8L113.21,33.35C113.21,37.739 109.599,41.35 105.21,41.35L80.82,43.62C80.581,43.642 80.34,43.652 80.1,43.652C75.707,43.652 72.093,40.038 72.093,35.645C72.093,31.523 75.275,28.041 79.38,27.67L87.38,26.94C79.546,20.092 69.486,16.314 59.08,16.314C35.511,16.314 16.11,35.692 16.08,59.26ZM38.85,78.86C39.089,78.838 39.33,78.828 39.57,78.828C43.976,78.828 47.602,82.454 47.602,86.86C47.602,90.995 44.409,94.489 40.29,94.86L30.21,95.77C38.107,102.926 48.393,106.893 59.05,106.893C82.612,106.893 102,87.505 102,63.943C102,63.915 102,63.888 102,63.86C102,59.449 105.629,55.82 110.04,55.82C114.451,55.82 118.08,59.449 118.08,63.86C118.08,63.862 118.08,63.865 118.08,63.867C118.08,96.234 91.446,122.867 59.08,122.867C45.719,122.867 32.747,118.329 22.3,110L22.3,114.18C22.3,118.591 18.671,122.22 14.26,122.22C9.849,122.22 6.22,118.591 6.22,114.18L6.22,89.14C6.204,85.007 9.393,81.507 13.51,81.14L38.82,78.84L38.85,78.86Z" style="fill:white;fill-opacity:0.75;fill-rule:nonzero;"/>
                    </g>
                </g>
            </g>
        </g>
    </g>
</svg>
