<?xml version="1.0" standalone="no"?>
<!DOCTYPE svg PUBLIC "-//W3C//DTD SVG 20010904//EN"
 "http://www.w3.org/TR/2001/REC-SVG-20010904/DTD/svg10.dtd">
<svg version="1.0" xmlns="http://www.w3.org/2000/svg"
 width="2805.000000pt" height="2805.000000pt" viewBox="0 0 2805.000000 2805.000000"
 preserveAspectRatio="xMidYMid meet">
<metadata>
Created by potrace 1.14, written by Peter Selinger 2001-2017
</metadata>
<g transform="translate(0.000000,2805.000000) scale(0.100000,-0.100000)"
fill="#000000" stroke="none">
<path d="M4825 28023 c-563 -39 -566 -40 -890 -107 -190 -40 -355 -80 -425
-105 -478 -165 -485 -168 -759 -306 -179 -89 -321 -168 -410 -228 -75 -49
-195 -129 -266 -177 -82 -55 -207 -155 -339 -271 -114 -101 -217 -190 -228
-198 -18 -13 -318 -349 -434 -486 -28 -33 -89 -116 -134 -185 -46 -69 -123
-184 -171 -256 -122 -183 -349 -639 -417 -839 -28 -82 -74 -215 -102 -295 -28
-80 -57 -174 -65 -210 -7 -36 -32 -157 -54 -269 -23 -113 -46 -221 -51 -240
-5 -20 -20 -162 -32 -316 l-23 -280 0 -9215 0 -9215 22 -275 c20 -237 30 -309
73 -520 28 -135 57 -274 64 -310 7 -36 36 -130 64 -210 28 -80 74 -212 102
-295 78 -224 309 -681 453 -895 61 -91 141 -210 178 -265 61 -91 328 -404 468
-548 31 -32 154 -145 273 -250 182 -159 260 -219 475 -365 230 -154 289 -189
543 -316 157 -79 337 -161 400 -183 504 -178 478 -170 765 -228 94 -19 213
-43 265 -54 98 -20 198 -29 615 -56 215 -14 1178 -16 9320 -12 9603 3 9147 1
9585 42 57 5 521 95 670 129 31 7 188 59 350 116 260 91 325 119 564 238 265
132 308 158 686 412 199 134 564 461 751 672 263 298 275 312 315 373 22 33
105 157 185 276 122 183 165 257 281 495 120 243 151 317 238 568 102 294 114
340 216 856 8 41 26 235 39 430 l25 355 0 9029 c0 9538 2 9064 -40 9616 -16
201 -117 690 -185 895 -132 397 -161 468 -308 761 -145 290 -159 313 -436 721
-64 95 -399 480 -512 589 -218 210 -440 391 -694 562 -229 155 -293 193 -533
313 -149 76 -297 147 -327 158 -207 81 -574 203 -665 222 -47 10 -175 36 -285
58 -110 23 -206 43 -214 46 -7 3 -168 16 -358 30 l-345 25 -9116 -2 c-5015 -1
-9139 -3 -9167 -5z m14855 -8513 c150 -13 274 -29 370 -50 80 -17 188 -40 241
-50 52 -11 122 -29 155 -40 32 -12 84 -29 114 -40 30 -10 114 -39 185 -65 72
-25 138 -49 147 -52 43 -13 262 -131 266 -143 3 -7 0 -10 -7 -6 -7 5 -8 1 -4
-10 4 -11 8 -13 11 -6 2 7 13 12 23 12 24 0 16 -18 -13 -29 -19 -7 -19 -8 -2
-22 16 -12 17 -12 9 1 -4 8 -4 12 0 7 14 -12 13 -44 -2 -44 -7 0 -13 5 -13 10
0 6 -3 7 -7 4 -3 -4 3 -16 15 -27 12 -12 22 -28 22 -37 0 -14 -2 -14 -15 3
-15 19 -15 19 -8 -1 3 -11 10 -26 16 -32 14 -19 1 -43 -25 -44 -23 -2 -23 -2
-1 -6 22 -4 22 -4 2 -24 -23 -23 -25 -39 -4 -39 8 0 12 6 9 14 -7 19 8 27 26
14 12 -8 11 -9 -4 -4 -13 5 -17 2 -13 -9 4 -8 -1 -19 -11 -24 -23 -14 -6 -14
19 0 19 10 20 9 9 -11 -6 -12 -17 -19 -24 -17 -7 3 -19 1 -27 -5 -11 -8 -10
-9 5 -4 13 4 17 2 13 -7 -3 -7 4 -19 15 -26 12 -7 17 -16 11 -20 -13 -8 -31
-63 -26 -78 2 -7 11 -9 20 -6 12 5 13 2 5 -14 -9 -15 -7 -22 9 -31 21 -14 16
-37 -7 -28 -7 3 -16 1 -19 -4 -3 -5 -13 -7 -23 -4 -9 3 -5 -2 9 -10 30 -17 50
-52 24 -43 -14 6 -28 -7 -31 -30 -1 -6 4 -9 12 -6 8 3 14 10 14 16 0 6 3 8 6
5 3 -4 1 -16 -6 -27 -12 -23 -1 -28 18 -9 9 9 12 8 12 -4 0 -12 -8 -15 -30
-14 -22 2 -27 -1 -19 -10 7 -8 6 -14 -3 -18 -7 -3 -2 -4 12 -3 18 1 25 -3 24
-15 -1 -10 3 -15 9 -11 6 3 7 1 3 -6 -4 -7 -17 -9 -29 -6 -22 6 -22 6 1 -12
18 -15 20 -21 10 -31 -9 -9 -9 -12 3 -12 9 0 10 -3 3 -8 -13 -9 -45 -72 -36
-72 4 0 8 -11 8 -25 1 -14 -2 -22 -8 -19 -5 3 -4 -3 3 -14 11 -17 16 -19 28
-9 12 10 13 9 6 -3 -5 -8 -9 -24 -8 -35 1 -16 1 -16 -3 -2 -3 9 -10 17 -15 17
-5 0 -2 -14 6 -30 9 -17 20 -28 25 -25 6 4 10 1 10 -4 0 -6 -6 -11 -12 -11
-10 0 -9 -3 1 -9 9 -6 10 -11 2 -15 -18 -12 -13 -56 7 -57 14 0 14 -2 -3 -8
-11 -5 -25 -4 -32 1 -9 8 -13 6 -13 -6 0 -9 7 -16 15 -16 9 0 12 -6 8 -17 -4
-11 -3 -14 5 -9 7 4 5 -7 -4 -30 -12 -28 -12 -39 -3 -50 9 -11 9 -18 1 -26
-18 -18 -14 -31 6 -24 14 5 14 4 -2 -9 -21 -16 -14 -19 29 -16 14 2 10 -4 -15
-20 -31 -19 -33 -22 -17 -34 19 -14 23 -30 5 -19 -10 6 -10 5 0 -8 10 -12 10
-18 -2 -27 -12 -10 -12 -16 0 -39 7 -14 10 -29 5 -32 -5 -3 -8 -27 -7 -53 1
-27 -4 -52 -10 -55 -15 -10 -25 -42 -13 -42 6 0 7 -4 4 -10 -3 -5 -1 -10 4
-10 6 0 11 5 11 10 0 6 5 10 12 10 6 0 8 -3 5 -7 -4 -3 -2 -12 4 -19 7 -8 6
-14 -2 -20 -7 -4 -9 -3 -5 4 12 20 -11 21 -32 1 -26 -24 -27 -26 -7 -26 8 0
15 5 16 11 1 6 4 0 8 -14 6 -19 3 -29 -13 -43 -12 -10 -15 -15 -7 -11 11 5 13
1 9 -20 -3 -16 -1 -26 6 -26 7 0 11 12 10 28 -1 22 3 28 20 29 19 2 19 1 4 -8
-22 -12 -23 -35 -2 -43 17 -6 9 -27 -9 -25 -7 1 -19 1 -27 0 -13 -1 -13 -3 -1
-10 11 -7 12 -13 3 -23 -6 -8 -9 -24 -5 -36 4 -17 1 -22 -13 -23 -16 -1 -16
-2 -3 -6 12 -3 15 -11 11 -25 -4 -18 -2 -20 19 -15 21 5 22 5 7 -7 -10 -7 -15
-16 -11 -19 3 -4 13 -1 22 5 13 10 14 10 4 -1 -6 -7 -9 -20 -6 -27 3 -8 0 -14
-7 -14 -6 0 -8 5 -5 10 3 6 2 10 -4 10 -13 0 -7 -58 8 -73 6 -6 10 -20 10 -31
-1 -17 -2 -18 -6 -3 -2 9 -12 17 -21 17 -13 0 -14 -2 -3 -9 9 -6 10 -11 2 -15
-17 -11 -13 -23 12 -31 14 -4 17 -8 9 -12 -9 -4 -10 -8 -2 -18 8 -9 8 -15 0
-20 -9 -5 -15 15 -11 38 1 5 -3 6 -9 2 -6 -4 -8 -19 -6 -33 2 -15 5 -31 5 -35
1 -5 5 -6 10 -3 11 7 36 -22 27 -31 -3 -3 -6 -1 -6 5 0 7 -4 12 -10 12 -5 0
-9 -15 -8 -34 1 -24 5 -33 15 -29 17 7 29 -25 14 -40 -9 -9 -11 -8 -6 4 8 21
-4 29 -30 18 -11 -4 -15 -8 -8 -8 15 -1 6 -32 -15 -48 -9 -7 -11 -13 -4 -13 6
0 18 10 26 21 l15 22 -2 -22 c-1 -11 -6 -21 -11 -21 -5 0 -7 -3 -4 -6 4 -3 2
-18 -2 -34 -9 -32 8 -47 30 -27 9 9 8 5 -1 -15 -9 -20 -16 -25 -24 -18 -9 7
-17 5 -26 -7 -13 -16 -12 -17 4 -4 15 12 21 9 18 -11 0 -4 7 -4 16 -1 11 4 14
3 9 -6 -4 -6 -2 -20 6 -29 12 -15 11 -16 -4 -4 -18 15 -39 8 -37 -11 0 -8 3
-7 6 2 5 11 7 11 14 0 5 -9 1 -18 -14 -27 -12 -7 -15 -11 -6 -8 13 3 15 0 12
-15 -3 -12 -11 -18 -19 -15 -8 3 -14 3 -14 0 0 -2 12 -9 26 -14 14 -6 22 -15
19 -20 -4 -6 -11 -8 -16 -4 -12 7 -7 -19 5 -28 6 -4 19 -2 30 4 17 8 17 6 -4
-14 -14 -14 -32 -23 -40 -20 -12 5 -13 3 -3 -10 7 -8 10 -18 6 -21 -3 -4 0 -7
8 -7 8 0 19 -11 25 -24 9 -20 8 -23 -5 -21 -9 1 -15 10 -14 21 1 11 0 13 -3 7
-3 -7 -10 -13 -15 -13 -6 0 -7 5 -4 10 3 6 1 10 -4 10 -6 0 -11 -7 -11 -15 0
-8 7 -15 15 -15 8 0 15 -7 15 -16 0 -9 -5 -12 -12 -8 -10 5 -10 3 0 -7 11 -11
14 -12 21 -1 6 10 10 9 13 -6 5 -16 2 -19 -11 -14 -14 5 -14 4 -2 -11 7 -9 17
-15 20 -12 4 2 8 -2 8 -10 0 -11 -5 -10 -26 3 l-26 15 22 -23 23 -24 -28 -24
c-15 -13 -21 -21 -14 -17 6 3 12 2 12 -2 0 -5 -6 -15 -12 -22 -11 -11 -9 -11
9 -2 12 6 21 17 19 24 -1 6 -1 8 2 4 2 -4 9 -1 16 8 10 15 12 14 12 -4 0 -11
-5 -17 -10 -14 -5 4 -7 -1 -3 -11 4 -9 3 -14 -2 -11 -5 3 -12 1 -16 -5 -3 -5
0 -10 7 -10 9 0 9 -3 -2 -10 -8 -5 -10 -10 -4 -10 7 0 14 -6 17 -14 4 -9 0
-12 -12 -9 -11 3 -21 -2 -25 -12 -3 -9 -11 -13 -17 -9 -8 4 -9 3 -5 -5 4 -6
12 -9 17 -6 5 4 9 2 9 -3 0 -5 10 -14 23 -20 l22 -12 -25 3 c-27 2 -36 -23
-10 -30 13 -4 13 -3 0 6 -10 7 -11 11 -3 11 7 0 17 -9 23 -21 9 -16 8 -24 -5
-39 -9 -10 -12 -20 -8 -23 5 -3 7 -22 5 -41 -2 -20 -8 -34 -12 -31 -13 8 -21
-25 -10 -43 5 -10 10 -12 10 -4 0 6 5 12 10 12 6 0 5 -11 -3 -27 -16 -32 -12
-54 8 -47 7 3 16 1 20 -5 6 -11 -6 -15 -40 -11 -16 2 -17 0 -6 -14 11 -13 11
-16 -2 -16 -9 0 -18 -4 -21 -9 -3 -4 6 -7 19 -6 24 3 30 -13 10 -27 -6 -5 -4
-8 5 -8 10 0 7 -5 -8 -16 -27 -19 -29 -38 -2 -29 11 4 20 2 20 -4 0 -6 -5 -10
-12 -8 -6 1 -13 -10 -14 -25 -3 -29 10 -38 19 -14 3 8 1 17 -6 20 -8 3 -8 5
-1 5 6 1 18 -7 25 -16 11 -13 11 -15 1 -9 -17 11 -13 -33 6 -52 6 -7 12 -19
12 -25 0 -7 -5 -4 -11 5 -5 10 -19 23 -30 28 -17 10 -19 8 -17 -19 1 -16 6
-27 10 -25 5 3 6 10 3 15 -4 5 -2 9 4 9 10 0 9 -48 -2 -66 -4 -7 0 -11 10 -10
9 0 18 -5 21 -13 3 -8 0 -11 -7 -7 -6 4 -11 2 -11 -3 0 -6 -6 -11 -13 -11 -8
0 -14 -7 -14 -15 0 -8 4 -12 9 -9 4 3 8 -2 8 -11 0 -10 5 -13 12 -9 7 4 8 3 4
-5 -4 -6 -12 -9 -17 -6 -17 11 -21 -23 -4 -48 11 -17 13 -27 5 -32 -6 -3 -8
-11 -5 -16 4 -5 1 -9 -5 -9 -6 0 -8 -5 -5 -10 4 -6 15 -8 26 -5 14 5 17 2 13
-8 -3 -9 -13 -13 -25 -10 -20 6 -26 -11 -8 -23 8 -4 7 -9 -2 -15 -11 -7 -10
-9 4 -9 9 0 17 7 17 16 0 8 5 12 10 9 8 -5 7 -12 -2 -22 -11 -14 -15 -35 -18
-105 -1 -10 -5 -18 -10 -18 -5 0 -7 -7 -3 -16 3 -9 0 -20 -8 -25 -10 -6 -7 -9
13 -9 15 0 30 -4 33 -10 3 -5 1 -10 -6 -10 -7 0 -9 -3 -6 -7 4 -3 2 -12 -4
-20 -9 -9 -8 -17 1 -28 6 -8 10 -20 7 -27 -4 -8 -6 -7 -6 5 -1 9 -3 17 -5 17
-2 0 -13 3 -23 7 -17 7 -17 6 0 -11 19 -19 23 -46 6 -46 -5 0 -8 4 -5 8 3 5
-1 9 -9 9 -10 0 -12 -4 -5 -12 5 -7 6 -16 2 -20 -4 -5 -2 -5 4 -2 14 8 27 -20
13 -28 -5 -4 -7 -11 -4 -16 4 -5 2 -9 -3 -9 -6 0 -9 -11 -8 -24 0 -13 4 -22 9
-19 13 8 19 -25 7 -46 -6 -12 -7 -21 -1 -21 5 0 12 8 14 18 3 10 5 6 6 -11 1
-24 4 -27 22 -22 l21 7 -21 -21 c-22 -22 -37 -28 -26 -12 3 5 1 12 -4 15 -14
9 -25 -14 -14 -25 6 -6 20 -11 32 -12 22 -1 28 -12 12 -22 -5 -3 -12 -1 -16 5
-3 5 -12 10 -18 10 -7 0 -6 -4 3 -10 13 -9 13 -12 -3 -24 -12 -9 -14 -16 -7
-21 6 -4 8 -15 5 -26 -8 -24 2 -24 29 -1 17 14 19 14 8 0 -7 -9 -9 -18 -5 -20
4 -3 2 -3 -4 -2 -7 2 -13 -4 -13 -12 0 -9 5 -12 12 -8 7 5 8 3 3 -6 -6 -10
-11 -9 -21 5 -12 16 -13 16 -11 -4 1 -11 5 -21 9 -21 4 0 8 -5 8 -11 0 -6 -9
-9 -19 -6 -14 3 -18 1 -14 -9 3 -8 8 -12 13 -9 4 2 16 -2 26 -10 19 -15 13
-19 -26 -16 -10 0 -11 -1 -2 -5 6 -3 12 -12 12 -20 0 -8 5 -14 12 -14 6 0 8
-3 5 -6 -4 -4 -13 -1 -21 5 -12 10 -15 9 -13 -8 0 -11 5 -17 9 -15 4 3 8 -7 8
-21 0 -15 4 -24 10 -20 6 3 7 -1 4 -9 -3 -9 -1 -16 5 -16 6 0 8 -7 5 -15 -4
-8 -10 -12 -15 -9 -5 3 -7 10 -4 15 4 5 1 9 -4 9 -6 0 -11 -5 -11 -11 0 -5 -6
-7 -12 -3 -8 4 -10 3 -5 -2 5 -5 14 -9 20 -9 7 -1 11 -7 9 -14 -2 -9 4 -10 19
-6 15 5 19 4 15 -4 -4 -6 -14 -11 -22 -11 -8 0 -17 -7 -20 -15 -5 -13 -9 -13
-22 -3 -13 11 -14 10 -3 -9 6 -13 8 -23 4 -23 -4 0 3 -10 17 -23 14 -12 24
-21 21 -20 -2 2 -9 -4 -15 -12 -9 -13 -29 0 -118 79 -103 91 -314 254 -361
279 -12 7 -49 30 -82 51 -33 22 -94 57 -135 79 -41 21 -94 50 -118 64 l-42 24
6 142 c8 190 -24 567 -65 762 -50 238 -53 248 -77 320 -122 363 -256 642 -433
898 -399 582 -973 1024 -1626 1254 -115 41 -241 81 -280 88 -38 8 -135 28
-215 45 -150 32 -294 46 -580 56 -248 10 -525 -22 -813 -92 -59 -15 -110 -24
-114 -21 -8 8 206 244 324 357 161 155 319 285 521 428 39 29 74 52 77 52 2 0
44 26 92 57 388 253 924 459 1433 551 398 72 647 82 1120 42z m1515 -800 c10
-11 16 -20 13 -20 -3 0 -13 9 -23 20 -10 11 -16 20 -13 20 3 0 13 -9 23 -20z
m-7990 -355 c202 -9 490 -51 661 -96 43 -11 97 -25 119 -30 171 -41 511 -172
705 -272 378 -194 655 -395 972 -706 l178 -174 82 31 c545 204 1077 232 1683
89 119 -28 373 -126 525 -202 643 -322 1148 -901 1374 -1575 151 -451 186
-968 96 -1404 -11 -55 -16 -104 -12 -108 5 -5 67 -30 138 -57 255 -95 520
-245 729 -412 115 -91 340 -314 439 -433 198 -238 413 -644 493 -931 13 -49
31 -113 39 -141 42 -151 74 -420 75 -619 3 -682 -237 -1330 -678 -1835 -395
-453 -927 -765 -1509 -885 -332 -68 -10 -65 -5719 -65 -4962 0 -5149 1 -5415
20 -249 17 -298 24 -520 69 -135 28 -277 61 -315 75 -361 125 -424 150 -630
254 -437 220 -806 504 -1137 877 -93 105 -194 226 -223 270 -30 44 -95 141
-145 215 -134 199 -283 503 -377 770 -93 264 -83 229 -144 521 -45 222 -51
267 -66 501 -15 237 -15 278 0 511 14 231 21 277 67 507 38 187 66 293 107
409 30 86 65 188 78 228 14 40 76 175 139 300 299 598 731 1091 1281 1465 157
106 250 161 430 250 127 64 288 136 360 161 344 121 319 114 685 186 165 33
525 63 738 62 256 -1 563 -42 835 -111 l108 -27 21 41 c50 96 118 234 118 240
0 3 30 56 68 116 37 61 72 119 77 128 55 97 207 307 308 427 91 107 300 319
427 432 422 374 989 671 1562 817 292 75 754 131 988 120 36 -2 119 -6 185 -9z
m8005 -180 c0 -5 -5 -3 -10 5 -5 8 -10 20 -10 25 0 6 5 3 10 -5 5 -8 10 -19
10 -25z m-34 -33 c-17 -16 -18 -16 -5 5 7 12 15 20 18 17 3 -2 -3 -12 -13 -22z
m18 -310 c3 -5 -1 -9 -9 -9 -8 0 -15 4 -15 9 0 4 4 8 9 8 6 0 12 -4 15 -8z
m-14 -402 c0 -5 -5 -10 -11 -10 -5 0 -7 5 -4 10 3 6 8 10 11 10 2 0 4 -4 4
-10z m0 -260 c0 -5 -4 -10 -10 -10 -5 0 -10 5 -10 10 0 6 5 10 10 10 6 0 10
-4 10 -10z m15 -30 c3 -5 2 -10 -4 -10 -5 0 -13 5 -16 10 -3 6 -2 10 4 10 5 0
13 -4 16 -10z m-17 -35 c-3 -3 -9 2 -12 12 -6 14 -5 15 5 6 7 -7 10 -15 7 -18z
m8 -485 c0 -11 -4 -20 -8 -20 -10 0 -11 24 -1 33 9 9 9 10 9 -13z m14 -210 c0
-5 -5 -10 -11 -10 -5 0 -7 5 -4 10 3 6 8 10 11 10 2 0 4 -4 4 -10z m-10 -44
c0 -3 -4 -8 -10 -11 -5 -3 -10 -1 -10 4 0 6 5 11 10 11 6 0 10 -2 10 -4z m20
-676 c0 -5 -5 -10 -11 -10 -5 0 -7 5 -4 10 3 6 8 10 11 10 2 0 4 -4 4 -10z
m-10 -410 c0 -5 -5 -10 -11 -10 -5 0 -7 5 -4 10 3 6 8 10 11 10 2 0 4 -4 4
-10z m-15 -320 c-3 -5 2 -10 11 -10 10 0 15 -3 11 -6 -10 -10 -39 5 -32 16 3
5 8 10 11 10 3 0 2 -4 -1 -10z m2 -220 c-1 -11 -5 -20 -9 -20 -10 0 -10 4 -2
24 8 22 13 20 11 -4z m0 -50 c-1 -11 -5 -20 -9 -20 -4 0 -8 9 -8 20 0 11 4 20
9 20 6 0 9 -9 8 -20z m23 -53 c0 -4 -4 -5 -10 -2 -5 3 -10 -2 -11 -12 0 -14
-2 -15 -6 -3 -3 8 -12 23 -20 32 -14 16 -13 16 16 5 17 -6 31 -15 31 -20z
m-20 -187 c0 -5 -5 -10 -11 -10 -5 0 -7 5 -4 10 3 6 8 10 11 10 2 0 4 -4 4
-10z m9 -403 c8 -10 7 -14 -4 -14 -8 0 -12 4 -9 8 2 4 -4 10 -13 12 -15 4 -15
5 -2 6 9 0 22 -5 28 -12z m1 -72 c0 -2 -7 -5 -15 -9 -9 -3 -15 0 -15 9 0 9 6
12 15 9 8 -4 15 -7 15 -9z"/>
<path d="M21140 18889 c0 -5 7 -9 16 -9 8 0 12 -4 9 -10 -3 -5 -1 -10 4 -10
19 0 12 28 -9 33 -11 3 -20 1 -20 -4z"/>
<path d="M21154 18556 c1 -18 7 -23 25 -23 24 0 24 0 5 14 -10 8 -18 19 -16
24 1 5 -2 9 -7 9 -5 0 -8 -11 -7 -24z"/>
<path d="M21156 18031 c-4 -6 -3 -11 2 -11 5 0 7 -15 5 -32 l-3 -33 10 29 c10
31 -1 68 -14 47z"/>
<path d="M21143 17713 c0 -9 4 -10 14 -2 7 6 13 12 13 14 0 1 -6 2 -13 2 -8 0
-14 -6 -14 -14z"/>
<path d="M21134 17648 c-4 -6 -3 -8 4 -4 5 3 13 0 15 -6 3 -8 6 -6 6 5 1 19
-14 23 -25 5z"/>
<path d="M21151 16024 c0 -11 3 -14 6 -6 3 7 2 16 -1 19 -3 4 -6 -2 -5 -13z"/>
<path d="M21149 15868 c-9 -32 3 -70 18 -55 4 5 2 12 -6 16 -16 10 -16 22 1
32 10 7 10 9 1 9 -7 0 -13 -1 -14 -2z"/>
<path d="M21150 15175 c0 -8 4 -15 10 -15 5 0 7 7 4 15 -4 8 -8 15 -10 15 -2
0 -4 -7 -4 -15z"/>
<path d="M21140 15003 c0 -15 18 -35 23 -27 3 5 -1 15 -9 22 -8 7 -14 9 -14 5z"/>
<path d="M21155 14850 c3 -5 8 -10 11 -10 2 0 4 5 4 10 0 6 -5 10 -11 10 -5 0
-7 -4 -4 -10z"/>
</g>
</svg>
