<?xml version="1.0" encoding="UTF-8" standalone="no"?>
<!DOCTYPE svg PUBLIC "-//W3C//DTD SVG 1.1//EN" "http://www.w3.org/Graphics/SVG/1.1/DTD/svg11.dtd">
<svg width="100%" height="100%" viewBox="0 0 801 801" version="1.1" xmlns="http://www.w3.org/2000/svg" xmlns:xlink="http://www.w3.org/1999/xlink" xml:space="preserve" xmlns:serif="http://www.serif.com/" style="fill-rule:evenodd;clip-rule:evenodd;stroke-linejoin:round;stroke-miterlimit:2;">
    <g id="SVGRepo_iconCarrier">
        <path d="M448.063,71.004L730.533,353.474C756.568,379.509 756.568,421.72 730.533,447.755L448.063,730.225C422.028,756.26 379.817,756.26 353.782,730.225L71.312,447.755C45.277,421.72 45.277,379.509 71.312,353.474L353.782,71.004C379.817,44.969 422.028,44.969 448.063,71.004ZM400.922,492.281C377.113,492.281 359.256,509.881 359.256,533.348C359.256,557.881 376.572,575.481 400.922,575.481C424.732,575.481 442.589,557.881 442.589,533.881C442.589,509.881 424.732,492.281 400.922,492.281ZM434.256,233.948L367.589,233.948L367.589,433.948L434.256,433.948L434.256,233.948Z" style="fill:white;fill-opacity:0.75;"/>
    </g>
</svg>
