<?xml version="1.0" encoding="UTF-8" standalone="no"?><!DOCTYPE svg PUBLIC "-//W3C//DTD SVG 1.1//EN" "http://www.w3.org/Graphics/SVG/1.1/DTD/svg11.dtd"><svg width="100%" height="100%" viewBox="0 0 4984 4577" version="1.1" xmlns="http://www.w3.org/2000/svg" xmlns:xlink="http://www.w3.org/1999/xlink" xml:space="preserve" xmlns:serif="http://www.serif.com/" style="fill-rule:evenodd;clip-rule:evenodd;stroke-linejoin:round;stroke-miterlimit:1.5;"><g><path d="M3747.52,2141.72l-3726.55,-0.052l0,302.988l3726.55,0l-0.001,-302.936Zm0.001,302.936c321.375,0 633.385,-127.665 860.632,-354.912c472.899,-472.9 472.899,-1240.77 -0,-1713.67c-472.9,-472.9 -1240.77,-472.9 -1713.67,-0c-424.917,424.916 -474.23,1097.06 -115.879,1579.44l243.178,-180.652c-268.763,-361.786 -231.778,-865.893 86.909,-1184.58c354.675,-354.675 930.577,-354.675 1285.25,-0c354.675,354.674 354.675,930.576 -0,1285.25c-170.435,170.435 -405.392,266.185 -646.424,266.185l0.001,302.936Z" style="fill:#fff;stroke:#fff;stroke-width:41.67px;"/><path d="M1436.87,1777.9c226.505,-3.705 442.926,-95.285 603.362,-255.722c340.889,-340.889 340.889,-894.407 -0,-1235.3c-340.89,-340.89 -894.408,-340.89 -1235.3,0c-163.81,163.811 -255.838,385.986 -255.838,617.649l300.238,-0c0,-152.035 60.396,-297.843 167.901,-405.348c223.718,-223.718 586.978,-223.718 810.696,-0c223.718,223.717 223.718,586.978 0,810.696c-107.505,107.505 -253.313,167.901 -405.348,167.901c-0,-0 -1401.61,-0 -1401.61,-0l0,300.238l1415.9,-0l0,-0.117Z" style="fill:#fff;stroke:#fff;stroke-width:41.67px;"/><path d="M2133.76,2808.36c228.068,2.59 446.243,94.313 607.711,255.781c340.89,340.89 340.89,894.408 0,1235.3c-340.89,340.889 -894.408,340.889 -1235.3,-0c-163.811,-163.811 -255.839,-385.986 -255.839,-617.649l300.239,0c-0,152.035 60.395,297.843 167.9,405.348c223.718,223.718 586.979,223.718 810.697,0c223.717,-223.718 223.717,-586.978 -0,-810.696c-107.506,-107.505 -253.314,-167.901 -405.349,-167.901c0,0 -2102.85,0 -2102.85,0l0,-300.238l2112.78,-0l-0,0.057Z" style="fill:#fff;stroke:#fff;stroke-width:41.67px;"/></g></svg>